font.ufo
<glyph name="quotedbl" format="1">
  <advance width="218"/>
  <unicode hex="0022"/>
  <outline>
    <contour>
      <point x="43" y="465" type="line"/>
      <point x="43" y="736" type="line"/>
      <point x="83" y="736" type="line"/>
      <point x="83" y="465" type="line"/>
    </contour>
    <contour>
      <point x="136" y="465" type="line"/>
      <point x="136" y="736" type="line"/>
      <point x="176" y="736" type="line"/>
      <point x="176" y="465" type="line"/>
    </contour>
  </outline>
</glyph>
<glyph name="parenright" format="1">
  <advance width="200"/>
  <unicode hex="0029"/>
  <outline>
    <contour>
      <point x="40" y="-9" type="curve"/>
      <point x="40" y="14" type="line"/>
      <point x="78" y="38"/>
      <point x="140" y="68"/>
      <point x="140" y="208" type="curve" smooth="yes"/>
      <point x="140" y="521" type="line" smooth="yes"/>
      <point x="140" y="632"/>
      <point x="79" y="663"/>
      <point x="40" y="686" type="curve"/>
      <point x="40" y="709" type="line"/>
      <point x="148" y="669"/>
      <point x="180" y="601"/>
      <point x="180" y="510" type="curve" smooth="yes"/>
      <point x="180" y="196" type="line" smooth="yes"/>
      <point x="180" y="168"/>
      <point x="176" y="48"/>
    </contour>
  </outline>
</glyph>
<glyph name="asterisk" format="1">
  <advance width="305"/>
  <unicode hex="002A"/>
  <outline>
    <contour>
      <point x="17" y="705" type="line"/>
      <point x="40" y="737" type="line"/>
      <point x="132" y="679" type="line"/>
      <point x="132" y="785" type="line"/>
      <point x="172" y="785" type="line"/>
      <point x="172" y="674" type="line"/>
      <point x="268" y="737" type="line"/>
      <point x="290" y="705" type="line"/>
      <point x="182" y="633" type="line"/>
      <point x="290" y="559" type="line"/>
      <point x="267" y="527" type="line"/>
      <point x="172" y="595" type="line"/>
      <point x="172" y="478" type="line"/>
      <point x="132" y="478" type="line"/>
      <point x="132" y="595" type="line"/>
      <point x="37" y="531" type="line"/>
      <point x="15" y="563" type="line"/>
      <point x="124" y="634" type="line"/>
    </contour>
  </outline>
</glyph>
<glyph name="comma" format="1">
  <advance width="177"/>
  <unicode hex="002C"/>
  <outline>
    <contour>
      <point x="51" y="-23" type="line"/>
      <point x="88" y="129" type="line"/>
      <point x="127" y="129" type="line"/>
      <point x="90" y="-23" type="line"/>
    </contour>
  </outline>
</glyph>
<glyph name="period" format="1">
  <advance width="82"/>
  <unicode hex="002E"/>
  <outline>
    <contour>
      <point x="15" y="4" type="curve" smooth="yes"/>
      <point x="15" y="18"/>
      <point x="27" y="30"/>
      <point x="41" y="30" type="curve" smooth="yes"/>
      <point x="55" y="30"/>
      <point x="67" y="18"/>
      <point x="67" y="4" type="curve" smooth="yes"/>
      <point x="67" y="-10"/>
      <point x="55" y="-22"/>
      <point x="41" y="-22" type="curve" smooth="yes"/>
      <point x="27" y="-22"/>
      <point x="15" y="-10"/>
    </contour>
  </outline>
</glyph>
<glyph name="two" format="1">
  <advance width="485"/>
  <unicode hex="0032"/>
  <outline>
    <contour>
      <point x="30" y="520" type="line"/>
      <point x="39" y="604"/>
      <point x="100" y="691"/>
      <point x="206" y="700" type="curve"/>
      <point x="206" y="662" type="line" smooth="yes"/>
      <point x="206" y="662"/>
      <point x="91" y="659"/>
      <point x="67" y="512" type="curve"/>
    </contour>
    <contour>
      <point x="49" y="0" type="line"/>
      <point x="49" y="38" type="line"/>
      <point x="453" y="38" type="line"/>
      <point x="453" y="0" type="line"/>
    </contour>
    <contour>
      <point x="49" y="80" type="line"/>
      <point x="49" y="257"/>
      <point x="257" y="328"/>
      <point x="294" y="346" type="curve" smooth="yes"/>
      <point x="350" y="373"/>
      <point x="419" y="408"/>
      <point x="419" y="494" type="curve" smooth="yes"/>
      <point x="419" y="579"/>
      <point x="387" y="662"/>
      <point x="251" y="662" type="curve"/>
      <point x="251" y="700" type="line"/>
      <point x="409" y="700"/>
      <point x="461" y="599"/>
      <point x="459" y="494" type="curve" smooth="yes"/>
      <point x="457" y="410"/>
      <point x="412" y="364"/>
      <point x="344" y="329" type="curve" smooth="yes"/>
      <point x="270" y="291"/>
      <point x="89" y="231"/>
      <point x="89" y="80" type="curve"/>
    </contour>
  </outline>
</glyph>
<glyph name="D" format="1">
  <advance width="472"/>
  <unicode hex="0044"/>
  <outline>
    <contour>
      <point x="42" y="0" type="line"/>
      <point x="42" y="700" type="line"/>
      <point x="82" y="700" type="line"/>
      <point x="82" y="0" type="line"/>
    </contour>
    <contour>
      <point x="127" y="0" type="curve"/>
      <point x="127" y="38" type="line"/>
      <point x="270" y="38"/>
      <point x="394" y="41"/>
      <point x="394" y="197" type="curve" smooth="yes"/>
      <point x="394" y="503" type="line"/>
      <point x="394" y="669"/>
      <point x="263" y="662"/>
      <point x="127" y="662" type="curve"/>
      <point x="127" y="700" type="line"/>
      <point x="281" y="700"/>
      <point x="434" y="706"/>
      <point x="434" y="503" type="curve"/>
      <point x="434" y="197" type="line"/>
      <point x="434" y="0"/>
      <point x="287" y="0"/>
    </contour>
  </outline>
</glyph>
<glyph name="W" format="1">
  <advance width="657"/>
  <unicode hex="0057"/>
  <outline>
    <contour>
      <point x="8" y="700" type="line"/>
      <point x="47" y="700" type="line"/>
      <point x="239" y="38" type="line"/>
      <point x="226" y="0" type="line"/>
      <point x="211" y="0" type="line"/>
    </contour>
    <contour>
      <point x="221" y="700" type="line"/>
      <point x="260" y="700" type="line"/>
      <point x="452" y="38" type="line"/>
      <point x="439" y="0" type="line"/>
      <point x="424" y="0" type="line"/>
      <point x="333" y="315" type="line"/>
      <point x="268" y="129" type="line"/>
      <point x="258" y="129" type="line"/>
      <point x="243" y="180" type="line"/>
      <point x="316" y="373" type="line"/>
    </contour>
    <contour>
      <point x="457" y="181" type="line"/>
      <point x="610" y="700" type="line"/>
      <point x="649" y="700" type="line"/>
      <point x="482" y="130" type="line"/>
      <point x="472" y="130" type="line"/>
    </contour>
  </outline>
</glyph>
<glyph name="a" format="1">
  <advance width="434"/>
  <unicode hex="0061"/>
  <outline>
    <contour>
      <point x="25" y="121" type="curve" smooth="yes"/>
      <point x="25" y="167" type="line" smooth="yes"/>
      <point x="25" y="200"/>
      <point x="31" y="235"/>
      <point x="74" y="257" type="curve" smooth="yes"/>
      <point x="126" y="284"/>
      <point x="342" y="308"/>
      <point x="342" y="347" type="curve"/>
      <point x="342" y="363" type="line" smooth="yes"/>
      <point x="342" y="441"/>
      <point x="275" y="483"/>
      <point x="226" y="483" type="curve"/>
      <point x="226" y="519" type="line"/>
      <point x="333" y="519"/>
      <point x="383" y="432"/>
      <point x="383" y="361" type="curve" smooth="yes"/>
      <point x="383" y="74" type="line" smooth="yes"/>
      <point x="383" y="66"/>
      <point x="386" y="40"/>
      <point x="409" y="40" type="curve"/>
      <point x="409" y="1" type="line"/>
      <point x="370" y="1"/>
      <point x="356" y="19"/>
      <point x="343" y="39" type="curve"/>
      <point x="318" y="14"/>
      <point x="266" y="1"/>
      <point x="226" y="1" type="curve"/>
      <point x="226" y="39" type="line"/>
      <point x="278" y="39"/>
      <point x="343" y="56"/>
      <point x="343" y="149" type="curve" smooth="yes"/>
      <point x="343" y="292" type="line"/>
      <point x="279" y="258"/>
      <point x="111" y="246"/>
      <point x="77" y="210" type="curve" smooth="yes"/>
      <point x="70" y="203"/>
      <point x="66" y="189"/>
      <point x="66" y="171" type="curve" smooth="yes"/>
      <point x="66" y="132" type="line" smooth="yes"/>
      <point x="67" y="64"/>
      <point x="127" y="39"/>
      <point x="181" y="39" type="curve"/>
      <point x="181" y="1" type="line"/>
      <point x="84" y="1"/>
      <point x="25" y="64"/>
    </contour>
    <contour>
      <point x="32" y="389" type="line"/>
      <point x="31" y="463"/>
      <point x="108" y="519"/>
      <point x="181" y="519" type="curve"/>
      <point x="181" y="481" type="line"/>
      <point x="126" y="481"/>
      <point x="69" y="438"/>
      <point x="69" y="375" type="curve"/>
    </contour>
  </outline>
</glyph>
<glyph name="c" format="1">
  <advance width="420"/>
  <unicode hex="0063"/>
  <outline>
    <contour>
      <point x="38" y="141" type="curve" smooth="yes"/>
      <point x="38" y="166"/>
      <point x="38" y="281"/>
      <point x="38" y="372" type="curve" smooth="yes"/>
      <point x="38" y="431"/>
      <point x="91" y="516"/>
      <point x="198" y="516" type="curve"/>
      <point x="198" y="478" type="line"/>
      <point x="127" y="478"/>
      <point x="79" y="414"/>
      <point x="79" y="369" type="curve" smooth="yes"/>
      <point x="79" y="141" type="line" smooth="yes"/>
      <point x="79" y="100"/>
      <point x="127" y="38"/>
      <point x="197" y="38" type="curve"/>
      <point x="197" y="0" type="line"/>
      <point x="76" y="0"/>
      <point x="38" y="94"/>
    </contour>
    <contour>
      <point x="242" y="477" type="curve"/>
      <point x="242" y="516" type="line"/>
      <point x="323" y="516"/>
      <point x="389" y="451"/>
      <point x="389" y="372" type="curve"/>
      <point x="350" y="358" type="line"/>
      <point x="350" y="364"/>
      <point x="350" y="369"/>
      <point x="349" y="374" type="curve" smooth="yes"/>
      <point x="342" y="445"/>
      <point x="286" y="477"/>
    </contour>
    <contour>
      <point x="241" y="-1" type="curve"/>
      <point x="241" y="37" type="line"/>
      <point x="297" y="37"/>
      <point x="353" y="84"/>
      <point x="360" y="145" type="curve" smooth="yes"/>
      <point x="361" y="150"/>
      <point x="361" y="154"/>
      <point x="361" y="159" type="curve"/>
      <point x="400" y="144" type="line"/>
      <point x="400" y="65"/>
      <point x="321" y="-1"/>
    </contour>
  </outline>
</glyph>
<glyph name="d" format="1">
  <advance width="430"/>
  <unicode hex="0064"/>
  <outline>
    <contour>
      <point x="30" y="141" type="curve" smooth="yes"/>
      <point x="30" y="377" type="line"/>
      <point x="30" y="446"/>
      <point x="102" y="516"/>
      <point x="184" y="516" type="curve" smooth="yes"/>
      <point x="303" y="516" type="line"/>
      <point x="303" y="478" type="line"/>
      <point x="185" y="478" type="line" smooth="yes"/>
      <point x="130" y="478"/>
      <point x="70" y="426"/>
      <point x="70" y="373" type="curve"/>
      <point x="70" y="143" type="line"/>
      <point x="70" y="86"/>
      <point x="137" y="38"/>
      <point x="185" y="38" type="curve" smooth="yes"/>
      <point x="303" y="38" type="line"/>
      <point x="303" y="0" type="line"/>
      <point x="187" y="0" type="line" smooth="yes"/>
      <point x="81" y="0"/>
      <point x="30" y="92"/>
    </contour>
    <contour>
      <point x="348" y="0" type="line"/>
      <point x="348" y="699" type="line"/>
      <point x="388" y="699" type="line"/>
      <point x="388" y="0" type="line"/>
    </contour>
  </outline>
</glyph>
<glyph name="f" format="1">
  <advance width="208"/>
  <unicode hex="0066"/>
  <outline>
    <contour>
      <point x="15" y="439" type="line"/>
      <point x="15" y="477" type="line"/>
      <point x="78" y="477" type="line"/>
      <point x="78" y="552" type="line" smooth="yes"/>
      <point x="78" y="597"/>
      <point x="91" y="696"/>
      <point x="197" y="696" type="curve" smooth="yes"/>
      <point x="208" y="696" type="line"/>
      <point x="199" y="658" type="line"/>
      <point x="194" y="658" type="line" smooth="yes"/>
      <point x="128" y="655"/>
      <point x="118" y="600"/>
      <point x="118" y="552" type="curve" smooth="yes"/>
      <point x="118" y="476" type="line"/>
      <point x="181" y="477" type="line"/>
      <point x="181" y="439" type="line"/>
      <point x="118" y="439" type="line"/>
      <point x="118" y="0" type="line"/>
      <point x="78" y="0" type="line"/>
      <point x="78" y="439" type="line"/>
    </contour>
  </outline>
</glyph>
<glyph name="g" format="1">
  <advance width="419"/>
  <unicode hex="0067"/>
  <outline>
    <contour>
      <point x="20" y="-181" type="line"/>
      <point x="31" y="-143" type="line"/>
      <point x="211" y="-143" type="line"/>
      <point x="294" y="-140"/>
      <point x="343" y="-82"/>
      <point x="343" y="-40" type="curve" smooth="yes"/>
      <point x="343" y="54" type="line"/>
      <point x="333" y="39"/>
      <point x="291" y="0"/>
      <point x="228" y="-1" type="curve"/>
      <point x="228" y="34" type="line"/>
      <point x="280" y="34"/>
      <point x="343" y="88"/>
      <point x="343" y="139" type="curve" smooth="yes"/>
      <point x="343" y="374" type="line" smooth="yes"/>
      <point x="343" y="445"/>
      <point x="268" y="478"/>
      <point x="228" y="478" type="curve"/>
      <point x="228" y="516" type="line"/>
      <point x="280" y="516"/>
      <point x="330" y="484"/>
      <point x="343" y="465" type="curve"/>
      <point x="343" y="516" type="line"/>
      <point x="383" y="516" type="line"/>
      <point x="383" y="-40" type="line" smooth="yes"/>
      <point x="383" y="-83"/>
      <point x="333" y="-180"/>
      <point x="230" y="-181" type="curve"/>
    </contour>
    <contour>
      <point x="29" y="139" type="curve" smooth="yes"/>
      <point x="29" y="378" type="line"/>
      <point x="30" y="424"/>
      <point x="77" y="516"/>
      <point x="183" y="516" type="curve"/>
      <point x="183" y="478" type="line"/>
      <point x="119" y="478"/>
      <point x="69" y="415"/>
      <point x="69" y="375" type="curve" smooth="yes"/>
      <point x="69" y="140" type="line" smooth="yes"/>
      <point x="69" y="102"/>
      <point x="116" y="37"/>
      <point x="183" y="37" type="curve"/>
      <point x="183" y="-1" type="line"/>
      <point x="74" y="0"/>
      <point x="29" y="94"/>
    </contour>
  </outline>
</glyph>
<glyph name="t" format="1">
  <advance width="247"/>
  <unicode hex="0074"/>
  <outline>
    <contour>
      <point x="15" y="438" type="line"/>
      <point x="15" y="477" type="line"/>
      <point x="78" y="477" type="line"/>
      <point x="78" y="700" type="line"/>
      <point x="118" y="700" type="line"/>
      <point x="118" y="477" type="line"/>
      <point x="181" y="477" type="line"/>
      <point x="181" y="438" type="line"/>
      <point x="118" y="438" type="line"/>
      <point x="118" y="159" type="line" smooth="yes"/>
      <point x="118" y="83"/>
      <point x="143" y="38"/>
      <point x="237" y="38" type="curve" smooth="yes"/>
      <point x="238" y="38" type="line"/>
      <point x="247" y="0" type="line"/>
      <point x="232" y="0" type="line" smooth="yes"/>
      <point x="110" y="1"/>
      <point x="78" y="66"/>
      <point x="78" y="168" type="curve" smooth="yes"/>
      <point x="78" y="438" type="line"/>
    </contour>
  </outline>
</glyph>
<glyph name="v" format="1">
  <advance width="400"/>
  <unicode hex="0076"/>
  <outline>
    <contour>
      <point x="8" y="515" type="line"/>
      <point x="53" y="515" type="line"/>
      <point x="219" y="31" type="line"/>
      <point x="208" y="0" type="line"/>
      <point x="188" y="0" type="line"/>
    </contour>
    <contour>
      <point x="213" y="140" type="line"/>
      <point x="347" y="515" type="line"/>
      <point x="392" y="515" type="line"/>
      <point x="241" y="92" type="line"/>
      <point x="229" y="92" type="line"/>
    </contour>
  </outline>
</glyph>
<glyph name="copyright" format="1">
  <advance width="764"/>
  <unicode hex="00A9"/>
  <outline>
    <contour>
      <point x="35" y="339" type="curve" smooth="yes"/>
      <point x="35" y="577"/>
      <point x="241" y="696"/>
      <point x="370" y="694" type="curve"/>
      <point x="370" y="664" type="line"/>
      <point x="235" y="664"/>
      <point x="64" y="544"/>
      <point x="64" y="339" type="curve" smooth="yes"/>
      <point x="64" y="174"/>
      <point x="197" y="17"/>
      <point x="370" y="17" type="curve"/>
      <point x="370" y="-16" type="line"/>
      <point x="192" y="-16"/>
      <point x="35" y="140"/>
    </contour>
    <contour>
      <point x="241" y="247" type="curve" smooth="yes"/>
      <point x="241" y="267"/>
      <point x="241" y="358"/>
      <point x="241" y="429" type="curve" smooth="yes"/>
      <point x="241" y="486"/>
      <point x="282" y="565"/>
      <point x="371" y="565" type="curve"/>
      <point x="371" y="535" type="line"/>
      <point x="301" y="535"/>
      <point x="273" y="470"/>
      <point x="273" y="426" type="curve" smooth="yes"/>
      <point x="273" y="247" type="line" smooth="yes"/>
      <point x="273" y="195"/>
      <point x="312" y="142"/>
      <point x="371" y="142" type="curve"/>
      <point x="371" y="113" type="line"/>
      <point x="269" y="113"/>
      <point x="241" y="199"/>
    </contour>
    <contour>
      <point x="405" y="-16" type="curve"/>
      <point x="405" y="17" type="line"/>
      <point x="569" y="17"/>
      <point x="705" y="175"/>
      <point x="705" y="339" type="curve" smooth="yes"/>
      <point x="705" y="521"/>
      <point x="556" y="664"/>
      <point x="405" y="664" type="curve"/>
      <point x="405" y="694" type="line"/>
      <point x="558" y="694"/>
      <point x="734" y="552"/>
      <point x="734" y="339" type="curve" smooth="yes"/>
      <point x="734" y="138"/>
      <point x="570" y="-16"/>
    </contour>
    <contour>
      <point x="405" y="112" type="curve"/>
      <point x="405" y="142" type="line"/>
      <point x="449" y="142"/>
      <point x="489" y="185"/>
      <point x="491" y="234" type="curve" smooth="yes"/>
      <point x="491" y="243" type="line"/>
      <point x="521" y="232" type="line"/>
      <point x="521" y="170"/>
      <point x="468" y="112"/>
    </contour>
    <contour>
      <point x="405" y="534" type="curve"/>
      <point x="405" y="565" type="line"/>
      <point x="469" y="565"/>
      <point x="519" y="508"/>
      <point x="519" y="446" type="curve"/>
      <point x="488" y="435" type="line"/>
      <point x="488" y="437"/>
      <point x="488" y="441"/>
      <point x="488" y="441" type="curve" smooth="yes"/>
      <point x="488" y="498"/>
      <point x="441" y="534"/>
    </contour>
  </outline>
</glyph>
<glyph name="ordfeminine" format="1">
  <advance width="230"/>
  <unicode hex="00AA"/>
  <outline>
    <contour>
      <point x="20" y="393" type="line"/>
      <point x="20" y="410" type="line"/>
      <point x="208" y="410" type="line"/>
      <point x="208" y="393" type="line"/>
    </contour>
    <component base="a" xScale="0.5" yScale="0.5" xOffset="4" yOffset="446"/>
  </outline>
</glyph>
<glyph name="uni00B5" format="1">
  <advance width="491"/>
  <unicode hex="00B5"/>
  <outline>
    <contour>
      <point x="35" y="0" type="line"/>
      <point x="35" y="698" type="line"/>
      <point x="75" y="698" type="line"/>
      <point x="75" y="316" type="line" smooth="yes"/>
      <point x="75" y="286"/>
      <point x="137" y="258"/>
      <point x="201" y="258" type="curve"/>
      <point x="201" y="220" type="line"/>
      <point x="131" y="220"/>
      <point x="87" y="250"/>
      <point x="75" y="257" type="curve"/>
      <point x="75" y="0" type="line"/>
    </contour>
    <contour>
      <point x="243" y="220" type="curve"/>
      <point x="243" y="258" type="line"/>
      <point x="306" y="258"/>
      <point x="369" y="285"/>
      <point x="369" y="316" type="curve" smooth="yes"/>
      <point x="369" y="698" type="line"/>
      <point x="369" y="700" type="line"/>
      <point x="409" y="700" type="line"/>
      <point x="409" y="698" type="line"/>
      <point x="409" y="315" type="line" smooth="yes"/>
      <point x="409" y="280"/>
      <point x="413" y="261"/>
      <point x="451" y="261" type="curve"/>
      <point x="451" y="222" type="line"/>
      <point x="408" y="222"/>
      <point x="392" y="234"/>
      <point x="376" y="257" type="curve"/>
      <point x="349" y="236"/>
      <point x="300" y="220"/>
    </contour>
  </outline>
</glyph>
<glyph name="tml_Visarga" format="1">
  <advance width="654"/>
  <unicode hex="0B83"/>
  <outline>
    <contour>
      <point x="475" y="121" type="curve" smooth="yes"/>
      <point x="475" y="159"/>
      <point x="506" y="190"/>
      <point x="545" y="190" type="curve" smooth="yes"/>
      <point x="583" y="190"/>
      <point x="614" y="159"/>
      <point x="614" y="121" type="curve" smooth="yes"/>
      <point x="614" y="83"/>
      <point x="583" y="52"/>
      <point x="545" y="52" type="curve" smooth="yes"/>
      <point x="506" y="52"/>
      <point x="475" y="83"/>
    </contour>
    <contour>
      <point x="256" y="510" type="curve" smooth="yes"/>
      <point x="256" y="548"/>
      <point x="287" y="579"/>
      <point x="325" y="579" type="curve" smooth="yes"/>
      <point x="363" y="579"/>
      <point x="394" y="548"/>
      <point x="394" y="510" type="curve" smooth="yes"/>
      <point x="394" y="471"/>
      <point x="363" y="440"/>
      <point x="325" y="440" type="curve" smooth="yes"/>
      <point x="287" y="440"/>
      <point x="256" y="471"/>
    </contour>
    <contour>
      <point x="40" y="118" type="curve" smooth="yes"/>
      <point x="40" y="156"/>
      <point x="71" y="187"/>
      <point x="109" y="187" type="curve" smooth="yes"/>
      <point x="148" y="187"/>
      <point x="179" y="156"/>
      <point x="179" y="118" type="curve" smooth="yes"/>
      <point x="179" y="79"/>
      <point x="148" y="48"/>
      <point x="109" y="48" type="curve" smooth="yes"/>
      <point x="71" y="48"/>
      <point x="40" y="79"/>
    </contour>
  </outline>
</glyph>
<glyph name="tml_A" format="1">
  <advance width="1013"/>
  <unicode hex="0B85"/>
  <outline>
    <contour>
      <point x="301" y="486" type="curve" smooth="yes"/>
      <point x="301" y="606"/>
      <point x="403" y="695"/>
      <point x="558" y="695" type="curve" smooth="yes"/>
      <point x="713" y="695"/>
      <point x="803" y="585"/>
      <point x="803" y="393" type="curve"/>
      <point x="803" y="224" type="line"/>
      <point x="763" y="224" type="line"/>
      <point x="763" y="396" type="line" smooth="yes"/>
      <point x="763" y="583"/>
      <point x="672" y="655"/>
      <point x="558" y="655" type="curve" smooth="yes"/>
      <point x="425" y="655"/>
      <point x="341" y="581"/>
      <point x="341" y="486" type="curve" smooth="yes"/>
      <point x="341" y="391"/>
      <point x="406" y="329"/>
      <point x="492" y="329" type="curve" smooth="yes"/>
      <point x="563" y="329"/>
      <point x="629" y="375"/>
      <point x="629" y="443" type="curve" smooth="yes"/>
      <point x="661" y="409" type="line" smooth="yes"/>
      <point x="656" y="346"/>
      <point x="581" y="289"/>
      <point x="492" y="289" type="curve" smooth="yes"/>
      <point x="402" y="289"/>
      <point x="301" y="352"/>
    </contour>
    <contour>
      <point x="483" y="192" type="curve"/>
      <point x="483" y="232" type="line"/>
      <point x="556" y="232"/>
      <point x="730" y="232"/>
      <point x="803" y="232" type="curve"/>
      <point x="804" y="67" type="line"/>
      <point x="804" y="-35"/>
      <point x="747" y="-127"/>
      <point x="647" y="-127" type="curve" smooth="yes"/>
      <point x="485" y="-127" type="line" smooth="yes"/>
      <point x="485" y="-87" type="line"/>
      <point x="648" y="-87" type="line" smooth="yes"/>
      <point x="712" y="-86"/>
      <point x="763" y="-29"/>
      <point x="763" y="69" type="curve"/>
      <point x="763" y="192" type="line"/>
      <point x="727" y="192"/>
      <point x="519" y="192"/>
    </contour>
    <contour>
      <point x="79" y="72" type="curve" smooth="yes"/>
      <point x="79" y="188"/>
      <point x="163" y="233"/>
      <point x="293" y="233" type="curve" smooth="yes"/>
      <point x="429" y="233" type="line"/>
      <point x="429" y="191" type="line"/>
      <point x="275" y="191" type="line" smooth="yes"/>
      <point x="251" y="191"/>
      <point x="119" y="196"/>
      <point x="119" y="72" type="curve" smooth="yes"/>
      <point x="119" y="-48"/>
      <point x="220" y="-87"/>
      <point x="280" y="-87" type="curve" smooth="yes"/>
      <point x="430" y="-87" type="line"/>
      <point x="430" y="-127" type="line"/>
      <point x="282" y="-127" type="line" smooth="yes"/>
      <point x="170" y="-127"/>
      <point x="79" y="-47"/>
    </contour>
    <contour>
      <point x="762" y="192" type="line"/>
      <point x="762" y="232" type="line"/>
      <point x="896" y="232" type="line"/>
      <point x="896" y="192" type="line"/>
    </contour>
    <contour>
      <point x="894" y="-107" type="line"/>
      <point x="894" y="578" type="line"/>
      <point x="934" y="578" type="line"/>
      <point x="934" y="-107" type="line"/>
    </contour>
  </outline>
</glyph>
<glyph name="tml_Aa" format="1">
  <advance width="1221"/>
  <unicode hex="0B86"/>
  <outline>
    <contour>
      <point x="683" y="-178" type="line"/>
      <point x="953" y="-177" type="line" smooth="yes"/>
      <point x="1036" y="-177"/>
      <point x="1117" y="-155"/>
      <point x="1117" y="-30" type="curve" smooth="yes"/>
      <point x="1117" y="21" type="line" smooth="yes"/>
      <point x="1117" y="127"/>
      <point x="1075" y="151"/>
      <point x="990" y="151" type="curve" smooth="yes"/>
      <point x="990" y="190" type="line"/>
      <point x="1081" y="190"/>
      <point x="1157" y="168"/>
      <point x="1157" y="21" type="curve" smooth="yes"/>
      <point x="1157" y="-26" type="line" smooth="yes"/>
      <point x="1157" y="-126"/>
      <point x="1119" y="-218"/>
      <point x="946" y="-218" type="curve" smooth="yes"/>
      <point x="683" y="-218" type="line"/>
    </contour>
    <component base="tml_A"/>
  </outline>
</glyph>
<glyph name="tml_Ii" format="1">
  <advance width="632"/>
  <unicode hex="0B88"/>
  <outline>
    <contour>
      <point x="443" y="253" type="curve" smooth="yes"/>
      <point x="443" y="278"/>
      <point x="464" y="300"/>
      <point x="489" y="300" type="curve" smooth="yes"/>
      <point x="514" y="300"/>
      <point x="536" y="278"/>
      <point x="536" y="253" type="curve" smooth="yes"/>
      <point x="536" y="228"/>
      <point x="514" y="207"/>
      <point x="489" y="207" type="curve" smooth="yes"/>
      <point x="464" y="207"/>
      <point x="443" y="228"/>
    </contour>
    <contour>
      <point x="198" y="254" type="curve" smooth="yes"/>
      <point x="198" y="279"/>
      <point x="219" y="300"/>
      <point x="245" y="300" type="curve" smooth="yes"/>
      <point x="270" y="300"/>
      <point x="291" y="279"/>
      <point x="291" y="254" type="curve" smooth="yes"/>
      <point x="291" y="228"/>
      <point x="270" y="207"/>
      <point x="245" y="207" type="curve" smooth="yes"/>
      <point x="219" y="207"/>
      <point x="198" y="228"/>
    </contour>
    <contour>
      <point x="364" y="0" type="line"/>
      <point x="404" y="0" type="line"/>
      <point x="404" y="594" type="line"/>
      <point x="364" y="594" type="line"/>
    </contour>
    <contour>
      <point x="81" y="1" type="line"/>
      <point x="81" y="593" type="line"/>
      <point x="121" y="594" type="line"/>
      <point x="121" y="1" type="line"/>
    </contour>
    <contour>
      <point x="269" y="555" type="line"/>
      <point x="546" y="555" type="line"/>
      <point x="546" y="596" type="line"/>
      <point x="269" y="596" type="line"/>
    </contour>
    <contour>
      <point x="81" y="555" type="line"/>
      <point x="81" y="596" type="line"/>
      <point x="215" y="596" type="line"/>
      <point x="215" y="555" type="line"/>
    </contour>
  </outline>
</glyph>
<glyph name="tml_U" format="1">
  <advance width="1003"/>
  <unicode hex="0B89"/>
  <outline>
    <contour>
      <point x="40" y="472" type="curve" smooth="yes"/>
      <point x="40" y="593"/>
      <point x="125" y="696"/>
      <point x="267" y="696" type="curve" smooth="yes"/>
      <point x="412" y="696"/>
      <point x="524" y="598"/>
      <point x="524" y="457" type="curve" smooth="yes"/>
      <point x="524" y="430" type="line"/>
      <point x="484" y="430" type="line"/>
      <point x="484" y="457" type="line" smooth="yes"/>
      <point x="484" y="592"/>
      <point x="363" y="656"/>
      <point x="267" y="656" type="curve" smooth="yes"/>
      <point x="146" y="656"/>
      <point x="80" y="570"/>
      <point x="80" y="473" type="curve" smooth="yes"/>
      <point x="80" y="391"/>
      <point x="132" y="325"/>
      <point x="227" y="325" type="curve" smooth="yes"/>
      <point x="313" y="325"/>
      <point x="353" y="434"/>
      <point x="337" y="504" type="curve"/>
      <point x="378" y="504" type="line"/>
      <point x="398" y="388"/>
      <point x="319" y="285"/>
      <point x="228" y="285" type="curve" smooth="yes"/>
      <point x="136" y="285"/>
      <point x="40" y="345"/>
    </contour>
    <contour>
      <point x="260" y="0" type="line"/>
      <point x="260" y="38" type="line"/>
      <point x="963" y="38" type="line"/>
      <point x="963" y="0" type="line"/>
    </contour>
    <contour>
      <point x="58" y="38" type="curve"/>
      <point x="206" y="38" type="line"/>
      <point x="206" y="0" type="line"/>
      <point x="117" y="0" type="line" smooth="yes"/>
      <point x="67" y="0"/>
      <point x="58" y="5"/>
    </contour>
    <contour>
      <point x="58" y="33" type="line" smooth="yes"/>
      <point x="58" y="137" type="line" smooth="yes"/>
      <point x="58" y="178"/>
      <point x="72" y="183"/>
      <point x="112" y="183" type="curve" smooth="yes"/>
      <point x="337" y="183" type="line" smooth="yes"/>
      <point x="451" y="184"/>
      <point x="484" y="237"/>
      <point x="484" y="339" type="curve" smooth="yes"/>
      <point x="484" y="376" type="line"/>
      <point x="524" y="376" type="line"/>
      <point x="524" y="339" type="line" smooth="yes"/>
      <point x="525" y="245"/>
      <point x="499" y="142"/>
      <point x="335" y="142" type="curve" smooth="yes"/>
      <point x="101" y="141" type="line"/>
      <point x="101" y="128"/>
      <point x="101" y="33"/>
      <point x="101" y="33" type="curve" smooth="yes"/>
    </contour>
    <contour>
      <point x="524" y="457" type="move"/>
    </contour>
  </outline>
</glyph>
<glyph name="tml_Ka" format="1">
  <advance width="818"/>
  <unicode hex="0B95"/>
  <outline>
    <contour>
      <point x="331" y="-11" type="curve"/>
      <point x="331" y="29" type="line"/>
      <point x="406" y="29"/>
      <point x="470" y="75"/>
      <point x="470" y="191" type="curve" smooth="yes"/>
      <point x="470" y="563" type="line"/>
      <point x="510" y="563" type="line"/>
      <point x="510" y="191" type="line" smooth="yes"/>
      <point x="510" y="95"/>
      <point x="467" y="-11"/>
    </contour>
    <contour>
      <point x="213" y="348" type="line"/>
      <point x="213" y="561" type="line"/>
      <point x="254" y="561" type="line"/>
      <point x="253" y="348" type="line"/>
    </contour>
    <contour>
      <point x="389" y="555" type="line"/>
      <point x="389" y="595" type="line"/>
      <point x="642" y="595" type="line"/>
      <point x="642" y="555" type="line"/>
    </contour>
    <contour>
      <point x="213" y="555" type="line"/>
      <point x="213" y="595" type="line"/>
      <point x="335" y="595" type="line"/>
      <point x="335" y="555" type="line"/>
    </contour>
    <contour>
      <point x="88" y="178" type="curve" smooth="yes"/>
      <point x="88" y="212" type="line" smooth="yes"/>
      <point x="88" y="364"/>
      <point x="202" y="371"/>
      <point x="240" y="371" type="curve" smooth="yes"/>
      <point x="581" y="371" type="line" smooth="yes"/>
      <point x="687" y="371"/>
      <point x="746" y="329"/>
      <point x="746" y="206" type="curve" smooth="yes"/>
      <point x="746" y="177" type="line" smooth="yes"/>
      <point x="746" y="52"/>
      <point x="664" y="2"/>
      <point x="530" y="2" type="curve"/>
      <point x="530" y="42" type="line" smooth="yes"/>
      <point x="623" y="42"/>
      <point x="706" y="62"/>
      <point x="706" y="177" type="curve" smooth="yes"/>
      <point x="706" y="311"/>
      <point x="674" y="331"/>
      <point x="569" y="331" type="curve" smooth="yes"/>
      <point x="243" y="331" type="line" smooth="yes"/>
      <point x="143" y="331"/>
      <point x="128" y="272"/>
      <point x="128" y="188" type="curve" smooth="yes"/>
      <point x="128" y="84"/>
      <point x="190" y="29"/>
      <point x="277" y="29" type="curve"/>
      <point x="277" y="-11" type="line"/>
      <point x="152" y="-11"/>
      <point x="88" y="80"/>
    </contour>
  </outline>
</glyph>
<glyph name="tml_Nya" format="1">
  <advance width="869"/>
  <unicode hex="0B9E"/>
  <outline>
    <contour>
      <point x="80" y="-125" type="line"/>
      <point x="557" y="-125" type="line" smooth="yes"/>
      <point x="636" y="-125"/>
      <point x="710" y="-89"/>
      <point x="710" y="26" type="curve" smooth="yes"/>
      <point x="710" y="154" type="line" smooth="yes"/>
      <point x="710" y="259"/>
      <point x="662" y="283"/>
      <point x="581" y="283" type="curve" smooth="yes"/>
      <point x="581" y="323" type="line"/>
      <point x="666" y="323"/>
      <point x="750" y="296"/>
      <point x="750" y="154" type="curve" smooth="yes"/>
      <point x="750" y="26" type="line" smooth="yes"/>
      <point x="750" y="-82"/>
      <point x="692" y="-165"/>
      <point x="557" y="-165" type="curve" smooth="yes"/>
      <point x="80" y="-165" type="line"/>
    </contour>
    <component base="tml_E"/>
  </outline>
</glyph>
<glyph name="tml_Rra" format="1">
  <advance width="786"/>
  <unicode hex="0BB1"/>
  <outline>
    <contour>
      <point x="80" y="-256" type="curve"/>
      <point x="120" y="-256" type="line"/>
      <point x="120" y="-145"/>
      <point x="152" y="-116"/>
      <point x="205" y="-116" type="curve" smooth="yes"/>
      <point x="499" y="-116" type="line" smooth="yes"/>
      <point x="611" y="-114"/>
      <point x="654" y="-22"/>
      <point x="654" y="64" type="curve" smooth="yes"/>
      <point x="654" y="475" type="line" smooth="yes"/>
      <point x="654" y="530"/>
      <point x="615" y="606"/>
      <point x="528" y="606" type="curve"/>
      <point x="528" y="566" type="line"/>
      <point x="543" y="566"/>
      <point x="614" y="560"/>
      <point x="614" y="460" type="curve" smooth="yes"/>
      <point x="614" y="64" type="line" smooth="yes"/>
      <point x="614" y="-20"/>
      <point x="568" y="-76"/>
      <point x="500" y="-76" type="curve" smooth="yes"/>
      <point x="212" y="-76" type="line" smooth="yes"/>
      <point x="153" y="-76"/>
      <point x="80" y="-95"/>
    </contour>
    <contour>
      <point x="110" y="0" type="line"/>
      <point x="110" y="479" type="line" smooth="yes"/>
      <point x="110" y="529"/>
      <point x="141" y="606"/>
      <point x="224" y="606" type="curve"/>
      <point x="224" y="566" type="line"/>
      <point x="162" y="566"/>
      <point x="150" y="503"/>
      <point x="150" y="474" type="curve" smooth="yes"/>
      <point x="152" y="0" type="line"/>
    </contour>
    <contour>
      <point x="277" y="566" type="curve"/>
      <point x="277" y="606" type="line"/>
      <point x="323" y="606"/>
      <point x="353" y="594"/>
      <point x="377" y="561" type="curve"/>
      <point x="405" y="597"/>
      <point x="438" y="606"/>
      <point x="477" y="606" type="curve"/>
      <point x="477" y="566" type="line"/>
      <point x="432" y="566"/>
      <point x="396" y="542"/>
      <point x="396" y="450" type="curve" smooth="yes"/>
      <point x="398" y="0" type="line"/>
      <point x="358" y="0" type="line"/>
      <point x="356" y="449" type="line" smooth="yes"/>
      <point x="356" y="542"/>
      <point x="329" y="566"/>
    </contour>
  </outline>
</glyph>
<glyph name="tml_La" format="1">
  <advance width="835"/>
  <unicode hex="0BB2"/>
  <outline>
    <contour>
      <point x="247" y="0" type="curve"/>
      <point x="247" y="40" type="line"/>
      <point x="291" y="40"/>
      <point x="341" y="88"/>
      <point x="341" y="183" type="curve" smooth="yes"/>
      <point x="341" y="282"/>
      <point x="289" y="319"/>
      <point x="247" y="319" type="curve"/>
      <point x="247" y="359" type="line" smooth="yes"/>
      <point x="320" y="359"/>
      <point x="383" y="292"/>
      <point x="383" y="196" type="curve" smooth="yes"/>
      <point x="383" y="173" type="line" smooth="yes"/>
      <point x="384" y="75"/>
      <point x="319" y="0"/>
    </contour>
    <contour>
      <point x="40" y="172" type="curve" smooth="yes"/>
      <point x="40" y="196" type="line" smooth="yes"/>
      <point x="40" y="300"/>
      <point x="116" y="359"/>
      <point x="192" y="359" type="curve"/>
      <point x="192" y="319" type="line" smooth="yes"/>
      <point x="155" y="319"/>
      <point x="79" y="295"/>
      <point x="79" y="181" type="curve" smooth="yes"/>
      <point x="79" y="91"/>
      <point x="142" y="40"/>
      <point x="192" y="40" type="curve"/>
      <point x="192" y="0" type="line" smooth="yes"/>
      <point x="104" y="0"/>
      <point x="40" y="88"/>
    </contour>
    <contour>
      <point x="40" y="204" type="line"/>
      <point x="40" y="302" type="line"/>
      <point x="40" y="469"/>
      <point x="117" y="605"/>
      <point x="242" y="605" type="curve"/>
      <point x="242" y="565" type="line"/>
      <point x="141" y="565"/>
      <point x="81" y="443"/>
      <point x="80" y="306" type="curve" smooth="yes"/>
    </contour>
    <contour>
      <point x="296" y="566" type="line"/>
      <point x="444" y="566"/>
      <point x="454" y="447"/>
      <point x="454" y="401" type="curve" smooth="yes"/>
      <point x="454" y="140" type="line" smooth="yes"/>
      <point x="454" y="64"/>
      <point x="524" y="0"/>
      <point x="598" y="0" type="curve"/>
      <point x="598" y="41" type="line"/>
      <point x="545" y="41"/>
      <point x="495" y="88"/>
      <point x="495" y="142" type="curve" smooth="yes"/>
      <point x="495" y="393" type="line" smooth="yes"/>
      <point x="495" y="481"/>
      <point x="461" y="606"/>
      <point x="296" y="606" type="curve"/>
    </contour>
    <contour>
      <point x="622" y="594" type="curve"/>
      <point x="622" y="554" type="line"/>
      <point x="747" y="554"/>
      <point x="756" y="488"/>
      <point x="756" y="422" type="curve"/>
      <point x="756" y="146" type="line"/>
      <point x="756" y="104"/>
      <point x="732" y="41"/>
      <point x="651" y="41" type="curve"/>
      <point x="651" y="0" type="line"/>
      <point x="747" y="0"/>
      <point x="796" y="71"/>
      <point x="796" y="146" type="curve" smooth="yes"/>
      <point x="796" y="424" type="line" smooth="yes"/>
      <point x="796" y="541"/>
      <point x="742" y="595"/>
    </contour>
  </outline>
</glyph>
<glyph name="tml_Llla" format="1">
  <advance width="601"/>
  <unicode hex="0BB4"/>
  <outline>
    <contour>
      <point x="86" y="-67" type="line"/>
      <point x="86" y="-191"/>
      <point x="202" y="-260"/>
      <point x="330" y="-165" type="curve"/>
      <point x="311" y="-163"/>
      <point x="288" y="-153"/>
      <point x="282" y="-148" type="curve"/>
      <point x="244" y="-189"/>
      <point x="126" y="-185"/>
      <point x="126" y="-67" type="curve"/>
    </contour>
    <contour>
      <point x="246" y="1" type="curve"/>
      <point x="286" y="1" type="line"/>
      <point x="286" y="-112"/>
      <point x="377" y="-106"/>
      <point x="484" y="-106" type="curve"/>
      <point x="484" y="-146" type="line" smooth="yes"/>
      <point x="432" y="-145" type="line"/>
      <point x="268" y="-146"/>
      <point x="246" y="-60"/>
    </contour>
    <component base="tml_Ma"/>
  </outline>
</glyph>
<glyph name="tml_MatraIi" format="1">
  <unicode hex="0BC0"/>
  <outline>
    <contour>
      <point x="542" y="414" type="line"/>
      <point x="367" y="557"/>
      <point x="392" y="880"/>
      <point x="585" y="880" type="curve" smooth="yes"/>
      <point x="660" y="880"/>
      <point x="723" y="838"/>
      <point x="723" y="756" type="curve" smooth="yes"/>
      <point x="723" y="700"/>
      <point x="679" y="638"/>
      <point x="613" y="638" type="curve" smooth="yes"/>
      <point x="566" y="638"/>
      <point x="526" y="675"/>
      <point x="522" y="696" type="curve"/>
      <point x="548" y="727" type="line" smooth="yes"/>
      <point x="548" y="711"/>
      <point x="567" y="678"/>
      <point x="615" y="678" type="curve" smooth="yes"/>
      <point x="657" y="678"/>
      <point x="683" y="717"/>
      <point x="683" y="755" type="curve" smooth="yes"/>
      <point x="683" y="792"/>
      <point x="663" y="839"/>
      <point x="585" y="839" type="curve"/>
      <point x="416" y="828"/>
      <point x="427" y="543"/>
      <point x="594" y="419" type="curve"/>
    </contour>
  </outline>
</glyph>
<glyph name="tml_MatraUu" format="1">
  <unicode hex="0BC2"/>
  <outline>
    <contour>
      <point x="39" y="615" type="line"/>
      <point x="319" y="615" type="line" smooth="yes"/>
      <point x="416" y="615"/>
      <point x="448" y="584"/>
      <point x="448" y="529" type="curve" smooth="yes"/>
      <point x="448" y="511"/>
      <point x="429" y="457"/>
      <point x="374" y="457" type="curve" smooth="yes"/>
      <point x="315" y="457"/>
      <point x="298" y="510"/>
      <point x="298" y="530" type="curve" smooth="yes"/>
      <point x="258" y="530" type="line"/>
      <point x="258" y="480"/>
      <point x="300" y="417"/>
      <point x="369" y="417" type="curve" smooth="yes"/>
      <point x="381" y="417" type="line" smooth="yes"/>
      <point x="436" y="417"/>
      <point x="488" y="471"/>
      <point x="488" y="530" type="curve" smooth="yes"/>
      <point x="488" y="537" type="line" smooth="yes"/>
      <point x="488" y="604"/>
      <point x="438" y="655"/>
      <point x="323" y="655" type="curve" smooth="yes"/>
      <point x="39" y="655" type="line"/>
    </contour>
    <contour>
      <point x="255" y="652" type="curve" smooth="yes"/>
      <point x="295" y="652" type="line"/>
      <point x="295" y="754"/>
      <point x="340" y="812"/>
      <point x="447" y="812" type="curve" smooth="yes"/>
      <point x="557" y="812"/>
      <point x="599" y="753"/>
      <point x="599" y="696" type="curve" smooth="yes"/>
      <point x="599" y="372" type="line" smooth="yes"/>
      <point x="599" y="290"/>
      <point x="547" y="287"/>
      <point x="501" y="287" type="curve" smooth="yes"/>
      <point x="442" y="287" type="line" smooth="yes"/>
      <point x="442" y="247" type="line" smooth="yes"/>
      <point x="501" y="247" type="line" smooth="yes"/>
      <point x="602" y="247"/>
      <point x="639" y="294"/>
      <point x="639" y="372" type="curve" smooth="yes"/>
      <point x="639" y="696" type="line" smooth="yes"/>
      <point x="639" y="801"/>
      <point x="550" y="852"/>
      <point x="447" y="852" type="curve" smooth="yes"/>
      <point x="332" y="852"/>
      <point x="255" y="794"/>
    </contour>
  </outline>
</glyph>
<glyph name="tml_MatraEe" format="1">
  <advance width="621"/>
  <unicode hex="0BC7"/>
  <outline>
    <contour>
      <point x="413" y="346" type="curve"/>
      <point x="413" y="386" type="line"/>
      <point x="457" y="386"/>
      <point x="507" y="434"/>
      <point x="507" y="529" type="curve" smooth="yes"/>
      <point x="507" y="628"/>
      <point x="455" y="665"/>
      <point x="413" y="665" type="curve"/>
      <point x="413" y="705" type="line" smooth="yes"/>
      <point x="486" y="705"/>
      <point x="549" y="638"/>
      <point x="549" y="542" type="curve" smooth="yes"/>
      <point x="549" y="519" type="line" smooth="yes"/>
      <point x="550" y="421"/>
      <point x="485" y="346"/>
    </contour>
    <contour>
      <point x="206" y="518" type="curve" smooth="yes"/>
      <point x="206" y="542" type="line" smooth="yes"/>
      <point x="206" y="646"/>
      <point x="282" y="705"/>
      <point x="358" y="705" type="curve"/>
      <point x="358" y="665" type="line" smooth="yes"/>
      <point x="321" y="665"/>
      <point x="245" y="641"/>
      <point x="245" y="527" type="curve" smooth="yes"/>
      <point x="245" y="437"/>
      <point x="308" y="386"/>
      <point x="358" y="386" type="curve"/>
      <point x="358" y="346" type="line" smooth="yes"/>
      <point x="270" y="346"/>
      <point x="206" y="434"/>
    </contour>
    <contour>
      <point x="413" y="-42" type="curve"/>
      <point x="413" y="-2" type="line"/>
      <point x="457" y="-2"/>
      <point x="507" y="46"/>
      <point x="507" y="141" type="curve" smooth="yes"/>
      <point x="507" y="240"/>
      <point x="455" y="277"/>
      <point x="413" y="277" type="curve"/>
      <point x="413" y="317" type="line" smooth="yes"/>
      <point x="486" y="317"/>
      <point x="549" y="250"/>
      <point x="549" y="154" type="curve" smooth="yes"/>
      <point x="549" y="131" type="line" smooth="yes"/>
      <point x="550" y="33"/>
      <point x="485" y="-42"/>
    </contour>
    <contour>
      <point x="206" y="130" type="curve" smooth="yes"/>
      <point x="206" y="154" type="line" smooth="yes"/>
      <point x="206" y="258"/>
      <point x="282" y="317"/>
      <point x="358" y="317" type="curve"/>
      <point x="358" y="277" type="line" smooth="yes"/>
      <point x="321" y="277"/>
      <point x="245" y="253"/>
      <point x="245" y="139" type="curve" smooth="yes"/>
      <point x="245" y="49"/>
      <point x="308" y="-2"/>
      <point x="358" y="-2" type="curve"/>
      <point x="358" y="-42" type="line" smooth="yes"/>
      <point x="270" y="-42"/>
      <point x="206" y="46"/>
    </contour>
    <contour>
      <point x="81" y="195" type="curve"/>
      <point x="81" y="466" type="line"/>
      <point x="81" y="676"/>
      <point x="291" y="705"/>
      <point x="354" y="705" type="curve" smooth="yes"/>
      <point x="354" y="666" type="line"/>
      <point x="307" y="664"/>
      <point x="118" y="646"/>
      <point x="118" y="462" type="curve" smooth="yes"/>
      <point x="118" y="208" type="line" smooth="yes"/>
      <point x="118" y="4"/>
      <point x="320" y="-2"/>
      <point x="356" y="-2" type="curve"/>
      <point x="356" y="-42" type="line" smooth="yes"/>
      <point x="351" y="-42" type="line" smooth="yes"/>
      <point x="268" y="-42"/>
      <point x="81" y="-5"/>
    </contour>
  </outline>
</glyph>
<glyph name="tml_Eight" format="1">
  <advance width="937"/>
  <unicode hex="0BEE"/>
  <outline>
    <contour>
      <point x="495" y="226" type="line" smooth="yes"/>
      <point x="420" y="279"/>
      <point x="330" y="352"/>
      <point x="330" y="486" type="curve" smooth="yes"/>
      <point x="330" y="606"/>
      <point x="378" y="734"/>
      <point x="526" y="734" type="curve" smooth="yes"/>
      <point x="685" y="734"/>
      <point x="725" y="621"/>
      <point x="725" y="429" type="curve"/>
      <point x="725" y="224" type="line"/>
      <point x="685" y="224" type="line"/>
      <point x="685" y="432" type="line" smooth="yes"/>
      <point x="685" y="619"/>
      <point x="641" y="694"/>
      <point x="526" y="694" type="curve" smooth="yes"/>
      <point x="420" y="694"/>
      <point x="370" y="607"/>
      <point x="370" y="486" type="curve" smooth="yes"/>
      <point x="370" y="347"/>
      <point x="520" y="271"/>
      <point x="576" y="226" type="curve" smooth="yes"/>
    </contour>
    <contour>
      <point x="384" y="192" type="curve"/>
      <point x="384" y="232" type="line"/>
      <point x="451" y="232"/>
      <point x="658" y="232"/>
      <point x="725" y="232" type="curve"/>
      <point x="726" y="67" type="line"/>
      <point x="726" y="-35"/>
      <point x="654" y="-127"/>
      <point x="530" y="-127" type="curve" smooth="yes"/>
      <point x="386" y="-127" type="line" smooth="yes"/>
      <point x="386" y="-87" type="line"/>
      <point x="530" y="-87" type="line" smooth="yes"/>
      <point x="616" y="-86"/>
      <point x="685" y="-29"/>
      <point x="685" y="69" type="curve"/>
      <point x="685" y="192" type="line"/>
      <point x="653" y="192"/>
      <point x="416" y="192"/>
    </contour>
    <contour>
      <point x="40" y="72" type="curve" smooth="yes"/>
      <point x="40" y="188"/>
      <point x="124" y="233"/>
      <point x="254" y="233" type="curve" smooth="yes"/>
      <point x="329" y="233" type="line"/>
      <point x="329" y="191" type="line"/>
      <point x="236" y="191" type="line" smooth="yes"/>
      <point x="212" y="191"/>
      <point x="80" y="196"/>
      <point x="80" y="72" type="curve" smooth="yes"/>
      <point x="80" y="-48"/>
      <point x="181" y="-87"/>
      <point x="241" y="-87" type="curve" smooth="yes"/>
      <point x="330" y="-87" type="line"/>
      <point x="330" y="-127" type="line"/>
      <point x="243" y="-127" type="line" smooth="yes"/>
      <point x="131" y="-127"/>
      <point x="40" y="-47"/>
    </contour>
    <contour>
      <point x="684" y="192" type="line"/>
      <point x="684" y="232" type="line"/>
      <point x="859" y="232" type="line"/>
      <point x="859" y="192" type="line"/>
    </contour>
    <contour>
      <point x="857" y="-107" type="line"/>
      <point x="857" y="578" type="line"/>
      <point x="897" y="578" type="line"/>
      <point x="897" y="-107" type="line"/>
    </contour>
  </outline>
</glyph>
<glyph name="tml_Day" format="1">
  <advance width="926"/>
  <unicode hex="0BF3"/>
  <outline>
    <contour>
      <point x="247" y="0" type="curve"/>
      <point x="247" y="40" type="line"/>
      <point x="291" y="40"/>
      <point x="341" y="88"/>
      <point x="341" y="183" type="curve" smooth="yes"/>
      <point x="341" y="282"/>
      <point x="289" y="319"/>
      <point x="247" y="319" type="curve"/>
      <point x="247" y="359" type="line" smooth="yes"/>
      <point x="320" y="359"/>
      <point x="383" y="292"/>
      <point x="383" y="196" type="curve" smooth="yes"/>
      <point x="383" y="173" type="line" smooth="yes"/>
      <point x="384" y="75"/>
      <point x="319" y="0"/>
    </contour>
    <contour>
      <point x="40" y="172" type="curve" smooth="yes"/>
      <point x="40" y="196" type="line" smooth="yes"/>
      <point x="40" y="300"/>
      <point x="116" y="359"/>
      <point x="192" y="359" type="curve"/>
      <point x="192" y="319" type="line" smooth="yes"/>
      <point x="155" y="319"/>
      <point x="79" y="295"/>
      <point x="79" y="181" type="curve" smooth="yes"/>
      <point x="79" y="91"/>
      <point x="142" y="40"/>
      <point x="192" y="40" type="curve"/>
      <point x="192" y="0" type="line" smooth="yes"/>
      <point x="104" y="0"/>
      <point x="40" y="88"/>
    </contour>
    <contour>
      <point x="40" y="204" type="line"/>
      <point x="40" y="302" type="line"/>
      <point x="40" y="469"/>
      <point x="125" y="605"/>
      <point x="263" y="605" type="curve"/>
      <point x="263" y="565" type="line"/>
      <point x="149" y="565"/>
      <point x="82" y="443"/>
      <point x="80" y="306" type="curve" smooth="yes"/>
    </contour>
    <contour>
      <point x="314" y="565" type="line"/>
      <point x="431" y="565"/>
      <point x="489" y="473"/>
      <point x="490" y="354" type="curve"/>
      <point x="490" y="76" type="line" smooth="yes"/>
      <point x="490" y="40"/>
      <point x="484" y="40"/>
      <point x="417" y="40" type="curve"/>
      <point x="417" y="0" type="line"/>
      <point x="886" y="0" type="line"/>
      <point x="886" y="40" type="line"/>
      <point x="531" y="40" type="line"/>
      <point x="531" y="355" type="line"/>
      <point x="530" y="466"/>
      <point x="476" y="605"/>
      <point x="314" y="605" type="curve"/>
    </contour>
  </outline>
</glyph>
<glyph name="tml_Rupee" format="1">
  <advance width="858"/>
  <unicode hex="0BF9"/>
  <outline>
    <contour>
      <point x="305" y="635" type="curve" smooth="yes"/>
      <point x="345" y="635" type="line"/>
      <point x="345" y="702"/>
      <point x="367" y="736"/>
      <point x="378" y="746" type="curve" smooth="yes"/>
      <point x="431" y="795"/>
      <point x="501" y="772"/>
      <point x="493" y="719" type="curve" smooth="yes"/>
      <point x="485" y="663"/>
      <point x="402" y="653"/>
      <point x="403" y="728" type="curve" smooth="yes"/>
      <point x="404" y="754"/>
      <point x="422" y="841"/>
      <point x="493" y="841" type="curve" smooth="yes"/>
      <point x="588" y="841"/>
      <point x="589" y="723"/>
      <point x="583" y="655" type="curve"/>
      <point x="722" y="655" type="line" smooth="yes"/>
      <point x="722" y="695" type="line" smooth="yes"/>
      <point x="624" y="695" type="line" smooth="yes"/>
      <point x="624" y="835"/>
      <point x="567" y="881"/>
      <point x="494" y="881" type="curve" smooth="yes"/>
      <point x="426" y="881"/>
      <point x="363" y="813"/>
      <point x="363" y="724" type="curve" smooth="yes"/>
      <point x="363" y="690"/>
      <point x="381" y="635"/>
      <point x="440" y="635" type="curve" smooth="yes"/>
      <point x="494" y="635"/>
      <point x="533" y="672"/>
      <point x="533" y="719" type="curve" smooth="yes"/>
      <point x="533" y="786"/>
      <point x="494" y="814"/>
      <point x="433" y="814" type="curve" smooth="yes"/>
      <point x="369" y="814"/>
      <point x="305" y="750"/>
    </contour>
    <contour>
      <point x="484" y="544" type="line"/>
      <point x="713" y="544" type="line"/>
      <point x="713" y="595" type="line"/>
      <point x="484" y="595" type="line"/>
    </contour>
    <contour>
      <point x="484" y="-137" type="line"/>
      <point x="484" y="-177" type="line"/>
      <point x="632" y="-177" type="line" smooth="yes"/>
      <point x="758" y="-177"/>
      <point x="818" y="-84"/>
      <point x="818" y="-15" type="curve" smooth="yes"/>
      <point x="818" y="221" type="line" smooth="yes"/>
      <point x="818" y="339"/>
      <point x="716" y="366"/>
      <point x="655" y="372" type="curve"/>
      <point x="655" y="332" type="line"/>
      <point x="676" y="332"/>
      <point x="778" y="319"/>
      <point x="778" y="222" type="curve" smooth="yes"/>
      <point x="778" y="-15" type="line" smooth="yes"/>
      <point x="778" y="-78"/>
      <point x="714" y="-137"/>
      <point x="641" y="-137" type="curve" smooth="yes"/>
    </contour>
    <contour>
      <point x="40" y="30" type="line" smooth="yes"/>
      <point x="40" y="-109"/>
      <point x="125" y="-177"/>
      <point x="234" y="-177" type="curve" smooth="yes"/>
      <point x="430" y="-177" type="line"/>
      <point x="430" y="-137" type="line"/>
      <point x="242" y="-137" type="line" smooth="yes"/>
      <point x="144" y="-137"/>
      <point x="82" y="-83"/>
      <point x="80" y="29" type="curve" smooth="yes"/>
      <point x="80" y="533" type="line" smooth="yes"/>
      <point x="80" y="627"/>
      <point x="124" y="635"/>
      <point x="208" y="635" type="curve" smooth="yes"/>
      <point x="346" y="635" type="line" smooth="yes"/>
      <point x="345" y="675" type="line" smooth="yes"/>
      <point x="210" y="675" type="line" smooth="yes"/>
      <point x="109" y="675"/>
      <point x="40" y="660"/>
      <point x="40" y="534" type="curve" smooth="yes"/>
    </contour>
    <contour>
      <point x="559" y="0" type="line"/>
      <point x="600" y="1" type="line"/>
      <point x="602" y="591" type="line"/>
      <point x="559" y="590" type="line"/>
    </contour>
    <contour>
      <point x="277" y="1" type="line"/>
      <point x="277" y="595" type="line"/>
      <point x="323" y="594" type="line"/>
      <point x="323" y="0" type="line"/>
    </contour>
    <contour>
      <point x="279" y="544" type="line"/>
      <point x="279" y="595" type="line"/>
      <point x="431" y="595" type="line"/>
      <point x="431" y="544" type="line"/>
    </contour>
  </outline>
</glyph>
<glyph name="tml_Number" format="1">
  <advance width="775"/>
  <unicode hex="0BFA"/>
  <outline>
    <contour>
      <point x="318" y="586" type="curve" smooth="yes"/>
      <point x="358" y="586" type="line"/>
      <point x="358" y="697"/>
      <point x="380" y="729"/>
      <point x="391" y="739" type="curve" smooth="yes"/>
      <point x="444" y="788"/>
      <point x="514" y="765"/>
      <point x="506" y="712" type="curve" smooth="yes"/>
      <point x="498" y="656"/>
      <point x="415" y="646"/>
      <point x="416" y="721" type="curve" smooth="yes"/>
      <point x="417" y="747"/>
      <point x="435" y="834"/>
      <point x="506" y="834" type="curve" smooth="yes"/>
      <point x="601" y="834"/>
      <point x="602" y="716"/>
      <point x="596" y="648" type="curve"/>
      <point x="735" y="648" type="line" smooth="yes"/>
      <point x="735" y="688" type="line" smooth="yes"/>
      <point x="637" y="688" type="line" smooth="yes"/>
      <point x="637" y="828"/>
      <point x="580" y="874"/>
      <point x="507" y="874" type="curve" smooth="yes"/>
      <point x="439" y="874"/>
      <point x="376" y="806"/>
      <point x="376" y="717" type="curve" smooth="yes"/>
      <point x="376" y="699"/>
      <point x="381" y="675"/>
      <point x="395" y="656" type="curve" smooth="yes"/>
      <point x="407" y="640"/>
      <point x="426" y="628"/>
      <point x="453" y="628" type="curve" smooth="yes"/>
      <point x="507" y="628"/>
      <point x="546" y="665"/>
      <point x="546" y="712" type="curve" smooth="yes"/>
      <point x="546" y="779"/>
      <point x="507" y="807"/>
      <point x="446" y="807" type="curve" smooth="yes"/>
      <point x="382" y="807"/>
      <point x="318" y="758"/>
    </contour>
    <component base="tml_Na" xOffset="-37"/>
  </outline>
</glyph>
<glyph name="anusvara" format="1">
  <advance width="469"/>
  <unicode hex="0D82"/>
  <outline>
    <contour>
      <point x="389" y="311" type="curve" smooth="yes"/>
      <point x="389" y="248" type="line" smooth="yes"/>
      <point x="389" y="151"/>
      <point x="369" y="85"/>
      <point x="259" y="85" type="curve"/>
      <point x="259" y="45" type="line"/>
      <point x="280" y="45" type="line" smooth="yes"/>
      <point x="426" y="45"/>
      <point x="429" y="190"/>
      <point x="429" y="248" type="curve" smooth="yes"/>
      <point x="429" y="311" type="line" smooth="yes"/>
      <point x="429" y="369"/>
      <point x="426" y="514"/>
      <point x="280" y="514" type="curve" smooth="yes"/>
      <point x="259" y="514" type="line"/>
      <point x="259" y="474" type="line"/>
      <point x="367" y="474"/>
      <point x="389" y="408"/>
    </contour>
    <contour>
      <point x="80" y="311" type="curve" smooth="yes"/>
      <point x="80" y="248" type="line" smooth="yes"/>
      <point x="80" y="151"/>
      <point x="100" y="85"/>
      <point x="209" y="85" type="curve"/>
      <point x="209" y="45" type="line"/>
      <point x="188" y="45" type="line" smooth="yes"/>
      <point x="43" y="45"/>
      <point x="40" y="190"/>
      <point x="40" y="248" type="curve" smooth="yes"/>
      <point x="40" y="311" type="line" smooth="yes"/>
      <point x="40" y="369"/>
      <point x="43" y="514"/>
      <point x="188" y="514" type="curve" smooth="yes"/>
      <point x="209" y="514" type="line"/>
      <point x="209" y="474" type="line"/>
      <point x="102" y="474"/>
      <point x="80" y="408"/>
    </contour>
  </outline>
</glyph>
<glyph name="si_vocalicL" format="1">
  <advance width="884"/>
  <unicode hex="0D8F"/>
  <outline>
    <contour>
      <point x="830" y="69" type="curve" smooth="yes"/>
      <point x="830" y="111"/>
      <point x="797" y="144"/>
      <point x="755" y="144" type="curve" smooth="yes"/>
      <point x="713" y="144"/>
      <point x="680" y="111"/>
      <point x="680" y="69" type="curve" smooth="yes"/>
      <point x="680" y="27"/>
      <point x="713" y="-6"/>
      <point x="755" y="-6" type="curve" smooth="yes"/>
      <point x="797" y="-6"/>
      <point x="830" y="27"/>
    </contour>
    <contour>
      <point x="854" y="251" type="line"/>
      <point x="854" y="371" type="line" smooth="yes"/>
      <point x="854" y="489"/>
      <point x="782" y="543"/>
      <point x="682" y="507" type="curve"/>
      <point x="682" y="464" type="line"/>
      <point x="706" y="472" type="line" smooth="yes"/>
      <point x="746" y="485"/>
      <point x="814" y="481"/>
      <point x="814" y="373" type="curve" smooth="yes"/>
      <point x="814" y="251" type="line"/>
    </contour>
    <contour>
      <point x="814" y="202" type="line"/>
      <point x="814" y="155"/>
      <point x="802" y="95"/>
      <point x="788" y="69" type="curve"/>
      <point x="821" y="33" type="line"/>
      <point x="843" y="74"/>
      <point x="854" y="139"/>
      <point x="854" y="202" type="curve"/>
    </contour>
    <contour>
      <point x="54" y="69" type="curve" smooth="yes"/>
      <point x="54" y="27"/>
      <point x="87" y="-6"/>
      <point x="129" y="-6" type="curve" smooth="yes"/>
      <point x="171" y="-6"/>
      <point x="204" y="27"/>
      <point x="204" y="69" type="curve" smooth="yes"/>
      <point x="204" y="111"/>
      <point x="171" y="144"/>
      <point x="129" y="144" type="curve" smooth="yes"/>
      <point x="87" y="144"/>
      <point x="54" y="111"/>
    </contour>
    <contour>
      <point x="30" y="251" type="line"/>
      <point x="70" y="251" type="line"/>
      <point x="70" y="373" type="line" smooth="yes"/>
      <point x="70" y="481"/>
      <point x="138" y="485"/>
      <point x="178" y="472" type="curve" smooth="yes"/>
      <point x="202" y="464" type="line"/>
      <point x="202" y="507" type="line"/>
      <point x="102" y="543"/>
      <point x="30" y="489"/>
      <point x="30" y="371" type="curve" smooth="yes"/>
    </contour>
    <contour>
      <point x="70" y="202" type="curve"/>
      <point x="30" y="202" type="line"/>
      <point x="30" y="139"/>
      <point x="41" y="74"/>
      <point x="63" y="33" type="curve"/>
      <point x="96" y="69" type="line"/>
      <point x="82" y="95"/>
      <point x="70" y="155"/>
    </contour>
    <component base="si_Pa" xOffset="132"/>
  </outline>
</glyph>
<glyph name="si_Ra" format="1">
  <advance width="515"/>
  <unicode hex="0DBB"/>
  <outline>
    <contour>
      <point x="30" y="235" type="curve" smooth="yes"/>
      <point x="30" y="427" type="line" smooth="yes"/>
      <point x="30" y="478"/>
      <point x="31" y="559"/>
      <point x="123" y="634" type="curve" smooth="yes"/>
      <point x="318" y="793" type="line"/>
      <point x="369" y="780" type="line"/>
      <point x="147" y="599" type="line" smooth="yes"/>
      <point x="72" y="539"/>
      <point x="70" y="487"/>
      <point x="70" y="420" type="curve" smooth="yes"/>
      <point x="70" y="235" type="line" smooth="yes"/>
      <point x="70" y="94"/>
      <point x="134" y="34"/>
      <point x="234" y="34" type="curve"/>
      <point x="234" y="-6" type="line"/>
      <point x="132" y="-6"/>
      <point x="30" y="51"/>
    </contour>
    <contour>
      <point x="140" y="524" type="line"/>
      <point x="181" y="564" type="line"/>
      <point x="335" y="564" type="line"/>
      <point x="468" y="564"/>
      <point x="485" y="504"/>
      <point x="485" y="381" type="curve" smooth="yes"/>
      <point x="485" y="235" type="line" smooth="yes"/>
      <point x="485" y="43"/>
      <point x="403" y="-5"/>
      <point x="290" y="-5" type="curve"/>
      <point x="290" y="35" type="line"/>
      <point x="401" y="35"/>
      <point x="445" y="103"/>
      <point x="445" y="235" type="curve" smooth="yes"/>
      <point x="445" y="380" type="line" smooth="yes"/>
      <point x="445" y="514"/>
      <point x="406" y="524"/>
      <point x="334" y="524" type="curve" smooth="yes"/>
      <point x="140" y="524" type="line"/>
    </contour>
  </outline>
</glyph>
<glyph name="si_MatraAa" format="1">
  <advance width="260"/>
  <unicode hex="0DCF"/>
  <outline>
    <contour>
      <point x="230" y="197" type="line" smooth="yes"/>
      <point x="230" y="68"/>
      <point x="180" y="0"/>
      <point x="50" y="0" type="curve"/>
      <point x="30" y="0" type="line"/>
      <point x="30" y="40" type="line"/>
      <point x="50" y="40" type="line"/>
      <point x="102" y="40"/>
      <point x="189" y="46"/>
      <point x="189" y="197" type="curve" smooth="yes"/>
      <point x="189" y="367" type="line" smooth="yes"/>
      <point x="189" y="518"/>
      <point x="102" y="524"/>
      <point x="50" y="524" type="curve"/>
      <point x="30" y="524" type="line"/>
      <point x="30" y="564" type="line"/>
      <point x="50" y="564" type="line"/>
      <point x="180" y="564"/>
      <point x="230" y="496"/>
      <point x="230" y="367" type="curve" smooth="yes"/>
    </contour>
  </outline>
</glyph>
<glyph name="si_MatraAe" format="1">
  <advance width="277"/>
  <unicode hex="0DD0"/>
  <outline>
    <contour>
      <point x="70" y="183" type="line" smooth="yes"/>
      <point x="70" y="134"/>
      <point x="73" y="40"/>
      <point x="195" y="40" type="curve" smooth="yes"/>
      <point x="204" y="40"/>
      <point x="223" y="40"/>
      <point x="227" y="40" type="curve"/>
      <point x="227" y="0" type="line"/>
      <point x="220" y="0"/>
      <point x="203" y="0"/>
      <point x="196" y="0" type="curve" smooth="yes"/>
      <point x="99" y="0"/>
      <point x="30" y="56"/>
      <point x="30" y="183" type="curve" smooth="yes"/>
      <point x="30" y="309" type="line" smooth="yes"/>
      <point x="30" y="408"/>
      <point x="48" y="434"/>
      <point x="167" y="534" type="curve"/>
      <point x="30" y="534" type="line"/>
      <point x="30" y="574" type="line"/>
      <point x="227" y="574" type="line"/>
      <point x="227" y="534" type="line"/>
      <point x="74" y="408"/>
      <point x="70" y="387"/>
      <point x="70" y="309" type="curve" smooth="yes"/>
    </contour>
  </outline>
</glyph>
<glyph name="si_MatraI" format="1">
  <advance width="583"/>
  <unicode hex="0DD2"/>
  <outline>
    <contour>
      <point x="377" y="789" type="curve"/>
      <point x="206" y="789" type="line"/>
      <point x="106" y="789"/>
      <point x="30" y="723"/>
      <point x="30" y="630" type="curve"/>
      <point x="30" y="602" type="line"/>
      <point x="70" y="602" type="line"/>
      <point x="70" y="654"/>
      <point x="79" y="749"/>
      <point x="222" y="749" type="curve"/>
      <point x="361" y="749" type="line"/>
      <point x="504" y="749"/>
      <point x="513" y="654"/>
      <point x="513" y="602" type="curve"/>
      <point x="553" y="602" type="line"/>
      <point x="553" y="630" type="line"/>
      <point x="553" y="723"/>
      <point x="477" y="789"/>
    </contour>
  </outline>
</glyph>
<glyph name="si_MatraIi" format="1">
  <advance width="570"/>
  <unicode hex="0DD3"/>
  <outline>
    <contour>
      <point x="359" y="664" type="curve" smooth="yes"/>
      <point x="359" y="614"/>
      <point x="399" y="574"/>
      <point x="449" y="574" type="curve" smooth="yes"/>
      <point x="499" y="574"/>
      <point x="539" y="614"/>
      <point x="539" y="664" type="curve" smooth="yes"/>
      <point x="539" y="714"/>
      <point x="499" y="754"/>
      <point x="449" y="754" type="curve" smooth="yes"/>
      <point x="399" y="754"/>
      <point x="359" y="714"/>
    </contour>
    <contour>
      <point x="539" y="664" type="line"/>
      <point x="539" y="760"/>
      <point x="462" y="789"/>
      <point x="377" y="789" type="curve"/>
      <point x="206" y="789" type="line"/>
      <point x="106" y="789"/>
      <point x="30" y="723"/>
      <point x="30" y="630" type="curve"/>
      <point x="30" y="602" type="line"/>
      <point x="70" y="602" type="line"/>
      <point x="70" y="654"/>
      <point x="79" y="749"/>
      <point x="222" y="749" type="curve"/>
      <point x="361" y="749" type="line"/>
      <point x="408" y="749"/>
      <point x="494" y="741"/>
      <point x="494" y="663" type="curve"/>
    </contour>
  </outline>
</glyph>
<glyph name="si_MatraUu" format="1">
  <advance width="516"/>
  <unicode hex="0DD6"/>
  <outline>
    <contour>
      <point x="30" y="-122" type="line"/>
      <point x="61" y="-149"/>
      <point x="85" y="-158"/>
      <point x="106" y="-158" type="curve" smooth="yes"/>
      <point x="147" y="-158"/>
      <point x="176" y="-122"/>
      <point x="225" y="-122" type="curve"/>
      <point x="225" y="-164" type="line"/>
      <point x="177" y="-164"/>
      <point x="147" y="-199"/>
      <point x="105" y="-199" type="curve" smooth="yes"/>
      <point x="84" y="-199"/>
      <point x="60" y="-191"/>
      <point x="30" y="-164" type="curve"/>
    </contour>
    <contour>
      <point x="446" y="123" type="line"/>
      <point x="446" y="-205" type="line"/>
      <point x="486" y="-205" type="line"/>
      <point x="486" y="123" type="line"/>
    </contour>
    <contour>
      <point x="281" y="-122" type="curve"/>
      <point x="281" y="-164" type="line"/>
      <point x="299" y="-164"/>
      <point x="360" y="-161"/>
      <point x="446" y="-205" type="curve"/>
      <point x="446" y="-161" type="line"/>
      <point x="363" y="-120"/>
      <point x="298" y="-122"/>
    </contour>
  </outline>
</glyph>
<glyph name="si_MatraR" format="1">
  <advance width="355"/>
  <unicode hex="0DD8"/>
  <outline>
    <contour>
      <point x="243" y="137" type="line" smooth="yes"/>
      <point x="243" y="84"/>
      <point x="199" y="40"/>
      <point x="146" y="40" type="curve" smooth="yes"/>
      <point x="93" y="40"/>
      <point x="49" y="84"/>
      <point x="49" y="137" type="curve" smooth="yes"/>
      <point x="49" y="190"/>
      <point x="93" y="234"/>
      <point x="146" y="234" type="curve" smooth="yes"/>
      <point x="187" y="234" type="line"/>
      <point x="187" y="274" type="line"/>
      <point x="146" y="274" type="line" smooth="yes"/>
      <point x="71" y="274"/>
      <point x="9" y="212"/>
      <point x="9" y="137" type="curve" smooth="yes"/>
      <point x="9" y="62"/>
      <point x="71" y="0"/>
      <point x="146" y="0" type="curve" smooth="yes"/>
      <point x="221" y="0"/>
      <point x="283" y="62"/>
      <point x="283" y="137" type="curve" smooth="yes"/>
      <point x="283" y="399" type="line"/>
      <point x="283" y="498"/>
      <point x="246" y="564"/>
      <point x="156" y="564" type="curve"/>
      <point x="68" y="564" type="line"/>
      <point x="68" y="524" type="line"/>
      <point x="158" y="524" type="line"/>
      <point x="210" y="524"/>
      <point x="243" y="478"/>
      <point x="243" y="399" type="curve"/>
    </contour>
  </outline>
</glyph>
<glyph name="si_MatraE" format="1">
  <advance width="447"/>
  <unicode hex="0DD9"/>
  <outline>
    <contour>
      <point x="249" y="524" type="curve"/>
      <point x="249" y="564" type="line"/>
      <point x="270" y="564" type="line" smooth="yes"/>
      <point x="367" y="564"/>
      <point x="417" y="487"/>
      <point x="424" y="431" type="curve"/>
      <point x="383" y="421" type="line"/>
      <point x="380" y="443"/>
      <point x="368" y="524"/>
    </contour>
    <contour>
      <point x="233" y="314" type="line"/>
      <point x="233" y="354" type="line"/>
      <point x="320" y="354" type="line" smooth="yes"/>
      <point x="379" y="354"/>
      <point x="427" y="335"/>
      <point x="427" y="255" type="curve" smooth="yes"/>
      <point x="427" y="157" type="line" smooth="yes"/>
      <point x="427" y="70"/>
      <point x="384" y="-5"/>
      <point x="278" y="-5" type="curve" smooth="yes"/>
      <point x="257" y="-5" type="line"/>
      <point x="257" y="35" type="line"/>
      <point x="350" y="35"/>
      <point x="387" y="80"/>
      <point x="387" y="154" type="curve" smooth="yes"/>
      <point x="387" y="253" type="line" smooth="yes"/>
      <point x="387" y="311"/>
      <point x="347" y="314"/>
      <point x="320" y="314" type="curve" smooth="yes"/>
    </contour>
    <contour>
      <point x="30" y="198" type="curve" smooth="yes"/>
      <point x="30" y="371" type="line" smooth="yes"/>
      <point x="30" y="449"/>
      <point x="63" y="564"/>
      <point x="208" y="564" type="curve" smooth="yes"/>
      <point x="249" y="564" type="line"/>
      <point x="249" y="524" type="line"/>
      <point x="209" y="524" type="line"/>
      <point x="100" y="524"/>
      <point x="70" y="450"/>
      <point x="70" y="371" type="curve" smooth="yes"/>
      <point x="70" y="198" type="line" smooth="yes"/>
      <point x="70" y="99"/>
      <point x="101" y="35"/>
      <point x="209" y="35" type="curve"/>
      <point x="209" y="-5" type="line"/>
      <point x="188" y="-5" type="line" smooth="yes"/>
      <point x="43" y="-5"/>
      <point x="30" y="140"/>
    </contour>
  </outline>
</glyph>
<glyph name="trademark" format="1">
  <advance width="463"/>
  <unicode hex="2122"/>
  <outline>
    <contour>
      <point x="26" y="688" type="line"/>
      <point x="26" y="699" type="line"/>
      <point x="158" y="699" type="line"/>
      <point x="158" y="688" type="line"/>
      <point x="98" y="688" type="line"/>
      <point x="98" y="485" type="line"/>
      <point x="86" y="485" type="line"/>
      <point x="86" y="688" type="line"/>
    </contour>
    <contour>
      <point x="181" y="485" type="line"/>
      <point x="181" y="653" type="line"/>
      <point x="184" y="653" type="line"/>
      <point x="193" y="629" type="line"/>
      <point x="193" y="485" type="line"/>
    </contour>
    <contour>
      <point x="181" y="692" type="line"/>
      <point x="181" y="699" type="line"/>
      <point x="192" y="699" type="line"/>
      <point x="273" y="503" type="line"/>
      <point x="339" y="652" type="line"/>
      <point x="342" y="652" type="line"/>
      <point x="342" y="629" type="line"/>
      <point x="279" y="485" type="line"/>
      <point x="267" y="485" type="line"/>
    </contour>
    <contour>
      <point x="356" y="485" type="line"/>
      <point x="356" y="699" type="line"/>
      <point x="368" y="699" type="line"/>
      <point x="368" y="485" type="line"/>
    </contour>
  </outline>
</glyph>
<glyph name="si_DI" format="1">
  <advance width="522"/>
  <outline>
    <contour>
      <point x="30" y="602" type="line"/>
      <point x="160" y="602" type="line"/>
      <point x="160" y="654"/>
      <point x="195" y="658"/>
      <point x="222" y="659" type="curve"/>
      <point x="281" y="659" type="line"/>
      <point x="308" y="658"/>
      <point x="343" y="654"/>
      <point x="343" y="602" type="curve"/>
      <point x="473" y="602" type="line"/>
      <point x="473" y="630" type="line"/>
      <point x="473" y="724"/>
      <point x="396" y="789"/>
      <point x="297" y="789" type="curve"/>
      <point x="206" y="789" type="line"/>
      <point x="107" y="789"/>
      <point x="30" y="724"/>
      <point x="30" y="630" type="curve"/>
    </contour>
    <component base="si_Da"/>
  </outline>
</glyph>
<glyph name="si_DUu" format="1">
  <advance width="483"/>
  <outline>
    <contour>
      <point x="35" y="-39" type="line"/>
      <point x="61" y="-58"/>
      <point x="84" y="-65"/>
      <point x="106" y="-65" type="curve" smooth="yes"/>
      <point x="148" y="-65"/>
      <point x="157" y="-42"/>
      <point x="196" y="-42" type="curve"/>
      <point x="196" y="-182" type="line"/>
      <point x="157" y="-182"/>
      <point x="148" y="-205"/>
      <point x="106" y="-205" type="curve" smooth="yes"/>
      <point x="84" y="-205"/>
      <point x="61" y="-198"/>
      <point x="35" y="-179" type="curve"/>
    </contour>
    <contour>
      <point x="196" y="-42" type="line"/>
      <point x="213" y="-42"/>
      <point x="234" y="-46"/>
      <point x="257" y="-61" type="curve"/>
      <point x="257" y="-205" type="line"/>
      <point x="231" y="-187"/>
      <point x="217" y="-182"/>
      <point x="196" y="-182" type="curve"/>
    </contour>
    <contour>
      <point x="313" y="136" type="line"/>
      <point x="453" y="136" type="line"/>
      <point x="453" y="-205" type="line"/>
      <point x="313" y="-205" type="line"/>
    </contour>
    <contour>
      <point x="30" y="198" type="curve" smooth="yes"/>
      <point x="30" y="337"/>
      <point x="125" y="402"/>
      <point x="256" y="402" type="curve" smooth="yes"/>
      <point x="313" y="402" type="line"/>
      <point x="313" y="439"/>
      <point x="278" y="457"/>
      <point x="243" y="457" type="curve" smooth="yes"/>
      <point x="214" y="457"/>
      <point x="185" y="444"/>
      <point x="176" y="420" type="curve"/>
      <point x="58" y="459" type="line"/>
      <point x="79" y="539"/>
      <point x="158" y="578"/>
      <point x="238" y="578" type="curve" smooth="yes"/>
      <point x="338" y="578"/>
      <point x="442" y="518"/>
      <point x="442" y="402" type="curve" smooth="yes"/>
      <point x="442" y="263" type="line"/>
      <point x="256" y="263" type="line" smooth="yes"/>
      <point x="217" y="263"/>
      <point x="173" y="257"/>
      <point x="173" y="198" type="curve"/>
      <point x="173" y="146"/>
      <point x="220" y="136"/>
      <point x="257" y="136" type="curve" smooth="yes"/>
      <point x="257" y="0" type="line" smooth="yes"/>
      <point x="137" y="0"/>
      <point x="30" y="59"/>
    </contour>
  </outline>
</glyph>
<glyph name="si_DVU" format="1">
  <advance width="758"/>
  <outline>
    <contour>
      <point x="30" y="169" type="curve" smooth="yes"/>
      <point x="30" y="289" type="line" smooth="yes"/>
      <point x="30" y="465"/>
      <point x="166" y="535"/>
      <point x="319" y="474" type="curve"/>
      <point x="319" y="375" type="line"/>
      <point x="282" y="385" type="line" smooth="yes"/>
      <point x="211" y="403"/>
      <point x="166" y="378"/>
      <point x="166" y="289" type="curve" smooth="yes"/>
      <point x="166" y="169" type="line" smooth="yes"/>
      <point x="166" y="88"/>
      <point x="180" y="67"/>
      <point x="223" y="12" type="curve"/>
      <point x="93" y="-28" type="line"/>
      <point x="44" y="41"/>
      <point x="30" y="78"/>
    </contour>
    <component base="si_VU" xOffset="190"/>
  </outline>
</glyph>
<glyph name="si_DdIi" format="1">
  <advance width="632"/>
  <outline>
    <contour>
      <point x="390" y="711" type="curve" smooth="yes"/>
      <point x="390" y="771"/>
      <point x="438" y="819"/>
      <point x="498" y="819" type="curve" smooth="yes"/>
      <point x="558" y="819"/>
      <point x="606" y="771"/>
      <point x="606" y="711" type="curve" smooth="yes"/>
      <point x="606" y="651"/>
      <point x="558" y="603"/>
      <point x="498" y="603" type="curve" smooth="yes"/>
      <point x="438" y="603"/>
      <point x="390" y="651"/>
    </contour>
    <contour>
      <point x="335" y="703" type="line"/>
      <point x="335" y="819" type="line"/>
      <point x="498" y="819" type="line"/>
      <point x="498" y="703" type="line"/>
    </contour>
    <contour>
      <point x="237" y="645" type="curve" smooth="yes"/>
      <point x="283" y="645" type="line"/>
      <point x="375" y="645" type="line"/>
      <point x="375" y="522" type="line"/>
      <point x="283" y="522" type="line"/>
      <point x="248" y="522" type="line" smooth="yes"/>
      <point x="12" y="522"/>
      <point x="11" y="819"/>
      <point x="248" y="819" type="curve" smooth="yes"/>
      <point x="279" y="819" type="line"/>
      <point x="279" y="703" type="line"/>
      <point x="237" y="703" type="line" smooth="yes"/>
      <point x="188" y="703"/>
      <point x="188" y="645"/>
    </contour>
    <contour>
      <point x="30" y="251" type="line"/>
      <point x="30" y="353" type="line"/>
      <point x="281" y="353" type="line"/>
      <point x="281" y="359" type="line"/>
      <point x="281" y="388"/>
      <point x="260" y="399"/>
      <point x="239" y="399" type="curve" smooth="yes"/>
      <point x="229" y="399"/>
      <point x="204" y="396"/>
      <point x="199" y="375" type="curve"/>
      <point x="100" y="401" type="line"/>
      <point x="126" y="489"/>
      <point x="203" y="502"/>
      <point x="239" y="502" type="curve" smooth="yes"/>
      <point x="283" y="502"/>
      <point x="327" y="485"/>
      <point x="351" y="458" type="curve" smooth="yes"/>
      <point x="371" y="436"/>
      <point x="384" y="404"/>
      <point x="384" y="349" type="curve" smooth="yes"/>
      <point x="384" y="251" type="line"/>
      <point x="242" y="251" type="line"/>
      <point x="211" y="251"/>
      <point x="207" y="231"/>
      <point x="207" y="219" type="curve"/>
      <point x="207" y="166" type="line" smooth="yes"/>
      <point x="207" y="154"/>
      <point x="216" y="132"/>
      <point x="246" y="132" type="curve" smooth="yes"/>
      <point x="276" y="132"/>
      <point x="284" y="153"/>
      <point x="284" y="166" type="curve" smooth="yes"/>
      <point x="284" y="202" type="line"/>
      <point x="384" y="202" type="line"/>
      <point x="384" y="166" type="line" smooth="yes"/>
      <point x="384" y="153"/>
      <point x="392" y="132"/>
      <point x="422" y="132" type="curve" smooth="yes"/>
      <point x="452" y="132"/>
      <point x="461" y="154"/>
      <point x="461" y="166" type="curve" smooth="yes"/>
      <point x="461" y="202" type="line"/>
      <point x="602" y="202" type="line"/>
      <point x="602" y="160" type="line" smooth="yes"/>
      <point x="602" y="58"/>
      <point x="535" y="-8"/>
      <point x="443" y="-8" type="curve" smooth="yes"/>
      <point x="409" y="-8"/>
      <point x="368" y="3"/>
      <point x="339" y="35" type="curve"/>
      <point x="315" y="3"/>
      <point x="279" y="-8"/>
      <point x="251" y="-8" type="curve" smooth="yes"/>
      <point x="146" y="-8"/>
      <point x="72" y="58"/>
      <point x="72" y="160" type="curve" smooth="yes"/>
      <point x="72" y="219" type="line"/>
      <point x="72" y="226"/>
      <point x="72" y="246"/>
      <point x="80" y="251" type="curve"/>
    </contour>
    <contour>
      <point x="371" y="522" type="curve"/>
      <point x="371" y="645" type="line"/>
      <point x="383" y="645"/>
      <point x="405" y="645"/>
      <point x="416" y="645" type="curve" smooth="yes"/>
      <point x="548" y="645"/>
      <point x="602" y="596"/>
      <point x="602" y="474" type="curve" smooth="yes"/>
      <point x="602" y="200" type="line"/>
      <point x="461" y="200" type="line"/>
      <point x="461" y="455" type="line" smooth="yes"/>
      <point x="461" y="514"/>
      <point x="420" y="522"/>
    </contour>
  </outline>
</glyph>
<glyph name="si_DdhI" format="1">
  <advance width="624"/>
  <outline>
    <contour>
      <point x="219" y="645" type="line" smooth="yes"/>
      <point x="44" y="645"/>
      <point x="43" y="922"/>
      <point x="247" y="922" type="curve" smooth="yes"/>
      <point x="433" y="922" type="line" smooth="yes"/>
      <point x="539" y="922"/>
      <point x="582" y="854"/>
      <point x="582" y="776" type="curve"/>
      <point x="447" y="776" type="line"/>
      <point x="447" y="804"/>
      <point x="427" y="806"/>
      <point x="389" y="806" type="curve" smooth="yes"/>
      <point x="247" y="806" type="line" smooth="yes"/>
      <point x="206" y="806"/>
      <point x="206" y="755"/>
      <point x="247" y="755" type="curve"/>
      <point x="247" y="645" type="line"/>
    </contour>
    <component base="si_Ddha"/>
  </outline>
</glyph>
<glyph name="si_DhI" format="1">
  <advance width="593"/>
  <outline>
    <contour>
      <point x="31" y="671" type="curve" smooth="yes"/>
      <point x="31" y="745"/>
      <point x="90" y="819"/>
      <point x="209" y="819" type="curve"/>
      <point x="254" y="819" type="line"/>
      <point x="254" y="703" type="line"/>
      <point x="188" y="703" type="line"/>
      <point x="167" y="703"/>
      <point x="157" y="690"/>
      <point x="157" y="678" type="curve" smooth="yes"/>
      <point x="157" y="665"/>
      <point x="167" y="652"/>
      <point x="188" y="652" type="curve"/>
      <point x="254" y="652" type="line"/>
      <point x="254" y="512" type="line"/>
      <point x="209" y="512" type="line"/>
      <point x="91" y="512"/>
      <point x="31" y="570"/>
    </contour>
    <contour>
      <point x="309" y="703" type="line"/>
      <point x="309" y="819" type="line"/>
      <point x="377" y="819" type="line" smooth="yes"/>
      <point x="505" y="819"/>
      <point x="550" y="756"/>
      <point x="550" y="673" type="curve"/>
      <point x="415" y="673" type="line"/>
      <point x="415" y="700"/>
      <point x="390" y="703"/>
      <point x="345" y="703" type="curve" smooth="yes"/>
    </contour>
    <contour>
      <point x="30" y="262" type="line" smooth="yes"/>
      <point x="30" y="344"/>
      <point x="45" y="474"/>
      <point x="241" y="474" type="curve"/>
      <point x="263" y="474" type="line"/>
      <point x="263" y="336" type="line"/>
      <point x="241" y="336" type="line"/>
      <point x="201" y="336"/>
      <point x="168" y="322"/>
      <point x="168" y="262" type="curve" smooth="yes"/>
      <point x="168" y="166" type="line" smooth="yes"/>
      <point x="168" y="154"/>
      <point x="177" y="132"/>
      <point x="207" y="132" type="curve" smooth="yes"/>
      <point x="237" y="132"/>
      <point x="245" y="153"/>
      <point x="245" y="166" type="curve" smooth="yes"/>
      <point x="245" y="202" type="line"/>
      <point x="345" y="202" type="line"/>
      <point x="345" y="166" type="line" smooth="yes"/>
      <point x="345" y="153"/>
      <point x="353" y="132"/>
      <point x="383" y="132" type="curve" smooth="yes"/>
      <point x="413" y="132"/>
      <point x="422" y="154"/>
      <point x="422" y="166" type="curve" smooth="yes"/>
      <point x="422" y="202" type="line"/>
      <point x="563" y="202" type="line"/>
      <point x="563" y="160" type="line" smooth="yes"/>
      <point x="563" y="58"/>
      <point x="496" y="-8"/>
      <point x="404" y="-8" type="curve" smooth="yes"/>
      <point x="370" y="-8"/>
      <point x="329" y="3"/>
      <point x="300" y="35" type="curve"/>
      <point x="276" y="3"/>
      <point x="240" y="-8"/>
      <point x="212" y="-8" type="curve" smooth="yes"/>
      <point x="105" y="-8"/>
      <point x="30" y="58"/>
      <point x="30" y="160" type="curve" smooth="yes"/>
    </contour>
    <contour>
      <point x="254" y="512" type="line"/>
      <point x="254" y="652" type="line"/>
      <point x="332" y="652" type="line"/>
      <point x="491" y="652"/>
      <point x="563" y="590"/>
      <point x="563" y="473" type="curve" smooth="yes"/>
      <point x="563" y="200" type="line"/>
      <point x="422" y="200" type="line"/>
      <point x="422" y="446" type="line" smooth="yes"/>
      <point x="422" y="504"/>
      <point x="381" y="512"/>
      <point x="332" y="512" type="curve"/>
    </contour>
  </outline>
</glyph>
<glyph name="si_KRa" format="1">
  <advance width="760"/>
  <outline>
    <contour>
      <point x="116" y="-47" type="line"/>
      <point x="246" y="-47" type="line"/>
      <point x="246" y="-85"/>
      <point x="350" y="-104"/>
      <point x="408" y="-104" type="curve" smooth="yes"/>
      <point x="473" y="-104"/>
      <point x="601" y="-87"/>
      <point x="601" y="-44" type="curve" smooth="yes"/>
      <point x="601" y="-32"/>
      <point x="600" y="-5"/>
      <point x="554" y="-5" type="curve"/>
      <point x="554" y="115" type="line"/>
      <point x="715" y="115"/>
      <point x="733" y="18"/>
      <point x="733" y="-47" type="curve" smooth="yes"/>
      <point x="733" y="-180"/>
      <point x="546" y="-234"/>
      <point x="409" y="-234" type="curve" smooth="yes"/>
      <point x="286" y="-234"/>
      <point x="116" y="-181"/>
      <point x="116" y="-75" type="curve" smooth="yes"/>
    </contour>
    <component base="si_Ka"/>
  </outline>
</glyph>
<glyph name="si_KSsIi" format="1">
  <advance width="1138"/>
  <outline>
    <contour>
      <point x="922" y="671" type="curve" smooth="yes"/>
      <point x="922" y="736"/>
      <point x="975" y="789"/>
      <point x="1040" y="789" type="curve" smooth="yes"/>
      <point x="1105" y="789"/>
      <point x="1158" y="736"/>
      <point x="1158" y="671" type="curve" smooth="yes"/>
      <point x="1158" y="606"/>
      <point x="1105" y="553"/>
      <point x="1040" y="553" type="curve" smooth="yes"/>
      <point x="975" y="553"/>
      <point x="922" y="606"/>
    </contour>
    <contour>
      <point x="622" y="602" type="line"/>
      <point x="622" y="630" type="line"/>
      <point x="622" y="723"/>
      <point x="699" y="789"/>
      <point x="798" y="789" type="curve"/>
      <point x="1040" y="789" type="line"/>
      <point x="1040" y="659" type="line" smooth="yes"/>
      <point x="814" y="659" type="line"/>
      <point x="787" y="658"/>
      <point x="752" y="654"/>
      <point x="752" y="602" type="curve"/>
    </contour>
    <component base="si_KSsa"/>
  </outline>
</glyph>
<glyph name="si_KSsa" format="1">
  <advance width="1138"/>
  <outline>
    <contour>
      <point x="592" y="460" type="line"/>
      <point x="616" y="537"/>
      <point x="684" y="575"/>
      <point x="755" y="575" type="curve" smooth="yes"/>
      <point x="797" y="575"/>
      <point x="840" y="562"/>
      <point x="876" y="536" type="curve"/>
      <point x="912" y="562"/>
      <point x="955" y="575"/>
      <point x="997" y="575" type="curve" smooth="yes"/>
      <point x="1068" y="575"/>
      <point x="1136" y="537"/>
      <point x="1160" y="460" type="curve"/>
      <point x="1042" y="421" type="line"/>
      <point x="1038" y="436"/>
      <point x="1023" y="451"/>
      <point x="995" y="451" type="curve" smooth="yes"/>
      <point x="980" y="451"/>
      <point x="940" y="443"/>
      <point x="940" y="397" type="curve"/>
      <point x="940" y="378" type="line"/>
      <point x="812" y="378" type="line"/>
      <point x="812" y="397" type="line"/>
      <point x="812" y="443"/>
      <point x="772" y="451"/>
      <point x="757" y="451" type="curve" smooth="yes"/>
      <point x="729" y="451"/>
      <point x="714" y="436"/>
      <point x="710" y="421" type="curve"/>
    </contour>
    <contour>
      <point x="788" y="168" type="line"/>
      <point x="788" y="277"/>
      <point x="874" y="345"/>
      <point x="936" y="367" type="curve"/>
      <point x="1102" y="367" type="line"/>
      <point x="1027" y="342"/>
      <point x="922" y="260"/>
      <point x="922" y="170" type="curve"/>
    </contour>
    <contour>
      <point x="574" y="202" type="curve"/>
      <point x="714" y="202" type="line"/>
      <point x="714" y="149"/>
      <point x="755" y="123"/>
      <point x="818" y="123" type="curve" smooth="yes"/>
      <point x="930" y="123" type="line" smooth="yes"/>
      <point x="995" y="123"/>
      <point x="1034" y="151"/>
      <point x="1034" y="202" type="curve"/>
      <point x="1174" y="202" type="line"/>
      <point x="1174" y="64"/>
      <point x="1091" y="-12"/>
      <point x="922" y="-12" type="curve" smooth="yes"/>
      <point x="829" y="-12" type="line" smooth="yes"/>
      <point x="652" y="-12"/>
      <point x="574" y="59"/>
    </contour>
    <contour>
      <point x="575" y="251" type="line"/>
      <point x="575" y="377"/>
      <point x="641" y="407"/>
      <point x="738" y="407" type="curve" smooth="yes"/>
      <point x="1003" y="407" type="line" smooth="yes"/>
      <point x="1111" y="407"/>
      <point x="1174" y="381"/>
      <point x="1174" y="251" type="curve"/>
      <point x="1035" y="251" type="line"/>
      <point x="1035" y="265"/>
      <point x="1035" y="288"/>
      <point x="1006" y="288" type="curve" smooth="yes"/>
      <point x="749" y="288" type="line" smooth="yes"/>
      <point x="716" y="288"/>
      <point x="714" y="264"/>
      <point x="714" y="251" type="curve"/>
    </contour>
    <contour>
      <point x="30" y="439" type="line"/>
      <point x="44" y="537"/>
      <point x="137" y="567"/>
      <point x="198" y="567" type="curve" smooth="yes"/>
      <point x="271" y="567"/>
      <point x="320" y="533"/>
      <point x="337" y="502" type="curve"/>
      <point x="245" y="402" type="line"/>
      <point x="245" y="437"/>
      <point x="214" y="446"/>
      <point x="198" y="446" type="curve" smooth="yes"/>
      <point x="164" y="446"/>
      <point x="147" y="423"/>
      <point x="147" y="402" type="curve"/>
    </contour>
    <contour>
      <point x="30" y="160" type="curve"/>
      <point x="147" y="255" type="line"/>
      <point x="166" y="239"/>
      <point x="181" y="221"/>
      <point x="181" y="202" type="curve"/>
      <point x="181" y="160" type="line" smooth="yes"/>
      <point x="181" y="122"/>
      <point x="240" y="123"/>
      <point x="240" y="160" type="curve" smooth="yes"/>
      <point x="240" y="202" type="line"/>
      <point x="340" y="202" type="line"/>
      <point x="340" y="162" type="line" smooth="yes"/>
      <point x="340" y="121"/>
      <point x="400" y="122"/>
      <point x="400" y="162" type="curve" smooth="yes"/>
      <point x="400" y="202" type="line" smooth="yes"/>
      <point x="400" y="233"/>
      <point x="394" y="259"/>
      <point x="351" y="276" type="curve"/>
      <point x="448" y="354" type="line"/>
      <point x="512" y="327"/>
      <point x="529" y="280"/>
      <point x="529" y="218" type="curve" smooth="yes"/>
      <point x="529" y="136" type="line" smooth="yes"/>
      <point x="529" y="3"/>
      <point x="363" y="-53"/>
      <point x="290" y="36" type="curve"/>
      <point x="230" y="-52"/>
      <point x="65" y="9"/>
      <point x="65" y="106" type="curve" smooth="yes"/>
      <point x="65" y="122" type="line" smooth="yes"/>
      <point x="65" y="142"/>
      <point x="64" y="162"/>
      <point x="41" y="162" type="curve" smooth="yes"/>
      <point x="38" y="162"/>
      <point x="34" y="161"/>
    </contour>
    <contour>
      <point x="30" y="160" type="line"/>
      <point x="30" y="259" type="line"/>
      <point x="335" y="509" type="line"/>
      <point x="513" y="640"/>
      <point x="726" y="569"/>
      <point x="752" y="518" type="curve"/>
      <point x="655" y="439" type="line"/>
      <point x="592" y="460"/>
      <point x="509" y="469"/>
      <point x="425" y="400" type="curve"/>
      <point x="155" y="181" type="line"/>
    </contour>
  </outline>
</glyph>
<glyph name="si_KVI" format="1">
  <advance width="1138"/>
  <outline>
    <contour>
      <point x="843" y="-5" type="curve"/>
      <point x="843" y="135" type="line"/>
      <point x="885" y="135"/>
      <point x="937" y="149"/>
      <point x="937" y="250" type="curve" smooth="yes"/>
      <point x="937" y="455" type="line" smooth="yes"/>
      <point x="937" y="514"/>
      <point x="896" y="522"/>
      <point x="847" y="522" type="curve"/>
      <point x="847" y="652" type="line"/>
      <point x="1006" y="652"/>
      <point x="1078" y="590"/>
      <point x="1078" y="474" type="curve" smooth="yes"/>
      <point x="1078" y="250" type="line" smooth="yes"/>
      <point x="1078" y="78"/>
      <point x="998" y="-5"/>
    </contour>
    <contour>
      <point x="30" y="439" type="line"/>
      <point x="44" y="537"/>
      <point x="137" y="567"/>
      <point x="198" y="567" type="curve" smooth="yes"/>
      <point x="271" y="567"/>
      <point x="320" y="533"/>
      <point x="337" y="502" type="curve"/>
      <point x="245" y="402" type="line"/>
      <point x="245" y="437"/>
      <point x="214" y="446"/>
      <point x="198" y="446" type="curve" smooth="yes"/>
      <point x="164" y="446"/>
      <point x="147" y="423"/>
      <point x="147" y="402" type="curve"/>
    </contour>
    <contour>
      <point x="30" y="160" type="curve"/>
      <point x="147" y="255" type="line"/>
      <point x="166" y="239"/>
      <point x="181" y="221"/>
      <point x="181" y="202" type="curve"/>
      <point x="181" y="160" type="line" smooth="yes"/>
      <point x="181" y="122"/>
      <point x="240" y="123"/>
      <point x="240" y="160" type="curve" smooth="yes"/>
      <point x="240" y="202" type="line"/>
      <point x="340" y="202" type="line"/>
      <point x="340" y="162" type="line" smooth="yes"/>
      <point x="340" y="121"/>
      <point x="400" y="122"/>
      <point x="400" y="162" type="curve" smooth="yes"/>
      <point x="400" y="202" type="line" smooth="yes"/>
      <point x="400" y="233"/>
      <point x="394" y="259"/>
      <point x="351" y="276" type="curve"/>
      <point x="448" y="354" type="line"/>
      <point x="512" y="327"/>
      <point x="529" y="280"/>
      <point x="529" y="218" type="curve" smooth="yes"/>
      <point x="529" y="136" type="line" smooth="yes"/>
      <point x="529" y="3"/>
      <point x="363" y="-53"/>
      <point x="290" y="36" type="curve"/>
      <point x="230" y="-52"/>
      <point x="65" y="9"/>
      <point x="65" y="106" type="curve" smooth="yes"/>
      <point x="65" y="122" type="line" smooth="yes"/>
      <point x="65" y="142"/>
      <point x="64" y="162"/>
      <point x="41" y="162" type="curve" smooth="yes"/>
      <point x="38" y="162"/>
      <point x="34" y="161"/>
    </contour>
    <contour>
      <point x="30" y="160" type="line"/>
      <point x="30" y="259" type="line"/>
      <point x="335" y="509" type="line"/>
      <point x="509" y="651"/>
      <point x="837" y="575"/>
      <point x="854" y="369" type="curve"/>
      <point x="854" y="252" type="line"/>
      <point x="770" y="252" type="line" smooth="yes"/>
      <point x="740" y="252"/>
      <point x="711" y="242"/>
      <point x="711" y="195" type="curve" smooth="yes"/>
      <point x="711" y="166"/>
      <point x="734" y="135"/>
      <point x="787" y="135" type="curve"/>
      <point x="787" y="-5" type="line"/>
      <point x="660" y="-5"/>
      <point x="573" y="87"/>
      <point x="573" y="192" type="curve" smooth="yes"/>
      <point x="573" y="278"/>
      <point x="607" y="353"/>
      <point x="715" y="369" type="curve"/>
      <point x="703" y="452"/>
      <point x="532" y="492"/>
      <point x="425" y="400" type="curve"/>
      <point x="155" y="181" type="line"/>
    </contour>
    <contour>
      <point x="561" y="671" type="curve" smooth="yes"/>
      <point x="561" y="745"/>
      <point x="620" y="819"/>
      <point x="738" y="819" type="curve"/>
      <point x="791" y="819" type="line"/>
      <point x="791" y="703" type="line"/>
      <point x="717" y="703" type="line"/>
      <point x="697" y="703"/>
      <point x="686" y="690"/>
      <point x="686" y="678" type="curve" smooth="yes"/>
      <point x="686" y="665"/>
      <point x="697" y="652"/>
      <point x="717" y="652" type="curve"/>
      <point x="789" y="652" type="line"/>
      <point x="789" y="522" type="line"/>
      <point x="738" y="522" type="line"/>
      <point x="620" y="522"/>
      <point x="561" y="576"/>
    </contour>
    <contour>
      <point x="847" y="703" type="line"/>
      <point x="847" y="819" type="line"/>
      <point x="896" y="819" type="line" smooth="yes"/>
      <point x="1024" y="819"/>
      <point x="1069" y="756"/>
      <point x="1069" y="673" type="curve"/>
      <point x="934" y="673" type="line"/>
      <point x="934" y="700"/>
      <point x="909" y="703"/>
      <point x="864" y="703" type="curve" smooth="yes"/>
    </contour>
  </outline>
</glyph>
<glyph name="si_NThIi" format="1">
  <advance width="1078"/>
  <outline>
    <contour>
      <point x="537" y="776" type="curve" smooth="yes"/>
      <point x="537" y="709"/>
      <point x="580" y="645"/>
      <point x="665" y="645" type="curve" smooth="yes"/>
      <point x="693" y="645" type="line"/>
      <point x="693" y="755" type="line"/>
      <point x="673" y="755"/>
      <point x="662" y="768"/>
      <point x="662" y="781" type="curve" smooth="yes"/>
      <point x="662" y="793"/>
      <point x="673" y="806"/>
      <point x="693" y="806" type="curve" smooth="yes"/>
      <point x="832" y="806" type="line"/>
      <point x="832" y="750"/>
      <point x="883" y="706"/>
      <point x="940" y="706" type="curve" smooth="yes"/>
      <point x="1000" y="706"/>
      <point x="1048" y="754"/>
      <point x="1048" y="814" type="curve" smooth="yes"/>
      <point x="1048" y="874"/>
      <point x="1000" y="922"/>
      <point x="940" y="922" type="curve" smooth="yes"/>
      <point x="693" y="922" type="line" smooth="yes"/>
      <point x="587" y="922"/>
      <point x="537" y="848"/>
    </contour>
    <component base="si_NTha"/>
  </outline>
</glyph>
<glyph name="si_NUu" format="1">
  <advance width="728"/>
  <outline>
    <contour>
      <point x="134" y="-34" type="line"/>
      <point x="174" y="-59"/>
      <point x="210" y="-68"/>
      <point x="243" y="-68" type="curve" smooth="yes"/>
      <point x="294" y="-68"/>
      <point x="329" y="-34"/>
      <point x="376" y="-34" type="curve"/>
      <point x="376" y="-174" type="line"/>
      <point x="329" y="-174"/>
      <point x="294" y="-205"/>
      <point x="243" y="-205" type="curve" smooth="yes"/>
      <point x="210" y="-205"/>
      <point x="174" y="-197"/>
      <point x="134" y="-174" type="curve"/>
    </contour>
    <contour>
      <point x="582" y="131" type="line"/>
      <point x="722" y="131" type="line"/>
      <point x="722" y="-205" type="line"/>
      <point x="582" y="-205" type="line"/>
    </contour>
    <contour>
      <point x="432" y="-34" type="line"/>
      <point x="461" y="-34"/>
      <point x="543" y="-40"/>
      <point x="582" y="-61" type="curve"/>
      <point x="582" y="-205" type="line"/>
      <point x="538" y="-180"/>
      <point x="468" y="-174"/>
      <point x="432" y="-174" type="curve"/>
    </contour>
    <contour>
      <point x="582" y="131" type="line"/>
      <point x="722" y="131" type="line"/>
      <point x="722" y="-205" type="line"/>
      <point x="582" y="-205" type="line"/>
    </contour>
    <component base="si_Na"/>
  </outline>
</glyph>
<glyph name="si_Ndj.halant" format="1">
  <advance width="765"/>
  <outline>
    <contour>
      <point x="455" y="489" type="line"/>
      <point x="463" y="489" type="line"/>
      <point x="495" y="526" type="line"/>
      <point x="495" y="819" type="line"/>
      <point x="455" y="819" type="line"/>
    </contour>
    <component base="si_Ndja"/>
  </outline>
</glyph>
<glyph name="si_R.halant" format="1">
  <advance width="505"/>
  <outline>
    <contour>
      <point x="554" y="160" type="curve" smooth="yes"/>
      <point x="554" y="202" type="line"/>
      <point x="594" y="202" type="line"/>
      <point x="594" y="160" type="line" smooth="yes"/>
      <point x="594" y="-8"/>
      <point x="952" y="-9"/>
      <point x="952" y="160" type="curve" smooth="yes"/>
      <point x="952" y="202" type="line"/>
      <point x="992" y="202" type="line"/>
      <point x="992" y="160" type="line" smooth="yes"/>
      <point x="992" y="-62"/>
      <point x="554" y="-62"/>
    </contour>
    <contour>
      <point x="19" y="2" type="line"/>
      <point x="57" y="79"/>
      <point x="120" y="82"/>
      <point x="149" y="82" type="curve" smooth="yes"/>
      <point x="228" y="82"/>
      <point x="275" y="38"/>
      <point x="336" y="38" type="curve" smooth="yes"/>
      <point x="379" y="38"/>
      <point x="458" y="69"/>
      <point x="458" y="173" type="curve" smooth="yes"/>
      <point x="458" y="383" type="line" smooth="yes"/>
      <point x="458" y="512"/>
      <point x="382" y="566"/>
      <point x="287" y="566" type="curve" smooth="yes"/>
      <point x="133" y="566"/>
      <point x="105" y="434"/>
      <point x="105" y="398" type="curve" smooth="yes"/>
      <point x="105" y="365"/>
      <point x="115" y="242"/>
      <point x="266" y="242" type="curve" smooth="yes"/>
      <point x="287" y="242"/>
      <point x="306" y="242"/>
      <point x="322" y="242" type="curve"/>
      <point x="322" y="202" type="line"/>
      <point x="312" y="202"/>
      <point x="271" y="202"/>
      <point x="245" y="202" type="curve" smooth="yes"/>
      <point x="148" y="202"/>
      <point x="65" y="275"/>
      <point x="65" y="398" type="curve" smooth="yes"/>
      <point x="65" y="535"/>
      <point x="177" y="606"/>
      <point x="287" y="606" type="curve" smooth="yes"/>
      <point x="498" y="606"/>
      <point x="499" y="431"/>
      <point x="499" y="383" type="curve" smooth="yes"/>
      <point x="499" y="369"/>
      <point x="499" y="191"/>
      <point x="499" y="173" type="curve" smooth="yes"/>
      <point x="499" y="36"/>
      <point x="393" y="-3"/>
      <point x="337" y="-3" type="curve" smooth="yes"/>
      <point x="265" y="-3"/>
      <point x="214" y="40"/>
      <point x="149" y="40" type="curve" smooth="yes"/>
      <point x="114" y="40"/>
      <point x="75" y="31"/>
      <point x="58" y="-8" type="curve"/>
    </contour>
    <contour>
      <point x="381" y="581" type="line"/>
      <point x="535" y="784" type="line"/>
      <point x="581" y="772" type="line"/>
      <point x="410" y="546" type="line"/>
    </contour>
    <contour>
      <point x="545" y="497" type="line"/>
      <point x="566" y="515"/>
      <point x="593" y="524"/>
      <point x="619" y="524" type="curve" smooth="yes"/>
      <point x="670" y="524"/>
      <point x="719" y="489"/>
      <point x="719" y="412" type="curve"/>
      <point x="719" y="251" type="line"/>
      <point x="759" y="251" type="line"/>
      <point x="759" y="412" type="line" smooth="yes"/>
      <point x="759" y="487"/>
      <point x="807" y="525"/>
      <point x="855" y="525" type="curve" smooth="yes"/>
      <point x="904" y="525"/>
      <point x="952" y="487"/>
      <point x="952" y="412" type="curve" smooth="yes"/>
      <point x="952" y="251" type="line"/>
      <point x="992" y="251" type="line"/>
      <point x="992" y="412" type="line" smooth="yes"/>
      <point x="992" y="515"/>
      <point x="925" y="565"/>
      <point x="858" y="565" type="curve" smooth="yes"/>
      <point x="811" y="565"/>
      <point x="765" y="541"/>
      <point x="739" y="496" type="curve"/>
      <point x="714" y="541"/>
      <point x="667" y="564"/>
      <point x="621" y="564" type="curve" smooth="yes"/>
      <point x="589" y="564"/>
      <point x="557" y="553"/>
      <point x="532" y="533" type="curve"/>
    </contour>
    <contour>
      <point x="30" y="389" type="line"/>
      <point x="30" y="819" type="line"/>
      <point x="166" y="819" type="line"/>
      <point x="166" y="389" type="line"/>
    </contour>
  </outline>
</glyph>
<glyph name="si_TThIi" format="1">
  <advance width="1080"/>
  <outline>
    <contour>
      <point x="539" y="776" type="curve" smooth="yes"/>
      <point x="539" y="709"/>
      <point x="582" y="645"/>
      <point x="667" y="645" type="curve" smooth="yes"/>
      <point x="695" y="645" type="line"/>
      <point x="695" y="755" type="line"/>
      <point x="675" y="755"/>
      <point x="664" y="768"/>
      <point x="664" y="781" type="curve" smooth="yes"/>
      <point x="664" y="793"/>
      <point x="675" y="806"/>
      <point x="695" y="806" type="curve" smooth="yes"/>
      <point x="834" y="806" type="line"/>
      <point x="834" y="750"/>
      <point x="885" y="706"/>
      <point x="942" y="706" type="curve" smooth="yes"/>
      <point x="1002" y="706"/>
      <point x="1050" y="754"/>
      <point x="1050" y="814" type="curve" smooth="yes"/>
      <point x="1050" y="874"/>
      <point x="1002" y="922"/>
      <point x="942" y="922" type="curve" smooth="yes"/>
      <point x="695" y="922" type="line" smooth="yes"/>
      <point x="589" y="922"/>
      <point x="539" y="848"/>
    </contour>
    <component base="si_TTha"/>
  </outline>
</glyph>
<glyph name="si_TUu" format="1">
  <advance width="819"/>
  <outline>
    <contour>
      <point x="552" y="202" type="line"/>
      <point x="593" y="202"/>
      <point x="601" y="218"/>
      <point x="601" y="250" type="curve"/>
      <point x="740" y="250" type="line"/>
      <point x="740" y="237"/>
      <point x="740" y="214"/>
      <point x="730" y="202" type="curve"/>
    </contour>
    <contour>
      <point x="575" y="-31" type="line" smooth="yes"/>
      <point x="575" y="-1"/>
      <point x="577" y="5"/>
      <point x="588" y="20" type="curve" smooth="yes"/>
      <point x="765" y="20" type="line"/>
      <point x="758" y="20"/>
      <point x="751" y="20"/>
      <point x="744" y="20" type="curve" smooth="yes"/>
      <point x="724" y="20"/>
      <point x="715" y="11"/>
      <point x="715" y="-18" type="curve" smooth="yes"/>
      <point x="715" y="-47" type="line" smooth="yes"/>
      <point x="715" y="-67"/>
      <point x="726" y="-75"/>
      <point x="748" y="-75" type="curve" smooth="yes"/>
      <point x="761" y="-75"/>
      <point x="773" y="-75"/>
      <point x="779" y="-75" type="curve"/>
      <point x="779" y="-205" type="line"/>
      <point x="707" y="-205" type="line" smooth="yes"/>
      <point x="651" y="-205"/>
      <point x="575" y="-163"/>
      <point x="575" y="-75" type="curve" smooth="yes"/>
    </contour>
    <contour>
      <point x="552" y="90" type="line"/>
      <point x="609" y="132" type="line"/>
      <point x="789" y="132" type="line"/>
      <point x="732" y="90" type="line"/>
    </contour>
    <contour>
      <point x="552" y="132" type="line"/>
      <point x="552" y="202" type="line"/>
      <point x="789" y="202" type="line"/>
      <point x="789" y="132" type="line"/>
    </contour>
    <contour>
      <point x="552" y="20" type="line"/>
      <point x="552" y="90" type="line"/>
      <point x="789" y="90" type="line"/>
      <point x="789" y="20" type="line"/>
    </contour>
    <contour>
      <point x="30" y="154" type="curve"/>
      <point x="74" y="249" type="line"/>
      <point x="203" y="286"/>
      <point x="190" y="127"/>
      <point x="292" y="127" type="curve" smooth="yes"/>
      <point x="335" y="127"/>
      <point x="373" y="154"/>
      <point x="373" y="194" type="curve" smooth="yes"/>
      <point x="373" y="220"/>
      <point x="362" y="244"/>
      <point x="324" y="260" type="curve"/>
      <point x="421" y="338" type="line"/>
      <point x="493" y="306"/>
      <point x="504" y="236"/>
      <point x="504" y="185" type="curve" smooth="yes"/>
      <point x="504" y="83"/>
      <point x="427" y="-8"/>
      <point x="296" y="-8" type="curve" smooth="yes"/>
      <point x="234" y="-8"/>
      <point x="163" y="25"/>
      <point x="111" y="101" type="curve" smooth="yes"/>
      <point x="90" y="131"/>
      <point x="75" y="166"/>
    </contour>
    <contour>
      <point x="37" y="439" type="line"/>
      <point x="51" y="537"/>
      <point x="144" y="567"/>
      <point x="205" y="567" type="curve" smooth="yes"/>
      <point x="274" y="567"/>
      <point x="336" y="522"/>
      <point x="336" y="506" type="curve"/>
      <point x="252" y="402" type="line"/>
      <point x="252" y="437"/>
      <point x="221" y="446"/>
      <point x="205" y="446" type="curve" smooth="yes"/>
      <point x="171" y="446"/>
      <point x="154" y="423"/>
      <point x="154" y="402" type="curve"/>
    </contour>
    <contour>
      <point x="30" y="154" type="line"/>
      <point x="30" y="259" type="line"/>
      <point x="301" y="480" type="line"/>
      <point x="446" y="639"/>
      <point x="740" y="582"/>
      <point x="740" y="321" type="curve" smooth="yes"/>
      <point x="740" y="185" type="line" smooth="yes"/>
      <point x="600" y="185" type="line" smooth="yes"/>
      <point x="600" y="307" type="line" smooth="yes"/>
      <point x="600" y="416"/>
      <point x="497" y="455"/>
      <point x="425" y="400" type="curve"/>
      <point x="155" y="188" type="line"/>
    </contour>
  </outline>
</glyph>
<glyph name="si_TthIi" format="1">
  <advance width="593"/>
  <outline>
    <contour>
      <point x="52" y="776" type="curve" smooth="yes"/>
      <point x="52" y="848"/>
      <point x="102" y="922"/>
      <point x="208" y="922" type="curve" smooth="yes"/>
      <point x="455" y="922" type="line" smooth="yes"/>
      <point x="515" y="922"/>
      <point x="563" y="874"/>
      <point x="563" y="814" type="curve" smooth="yes"/>
      <point x="563" y="754"/>
      <point x="515" y="706"/>
      <point x="455" y="706" type="curve" smooth="yes"/>
      <point x="398" y="706"/>
      <point x="347" y="750"/>
      <point x="347" y="806" type="curve"/>
      <point x="208" y="806" type="line" smooth="yes"/>
      <point x="188" y="806"/>
      <point x="177" y="793"/>
      <point x="177" y="781" type="curve" smooth="yes"/>
      <point x="177" y="768"/>
      <point x="188" y="755"/>
      <point x="208" y="755" type="curve"/>
      <point x="208" y="645" type="line"/>
      <point x="180" y="645" type="line" smooth="yes"/>
      <point x="95" y="645"/>
      <point x="52" y="709"/>
    </contour>
    <component base="si_Ttha"/>
  </outline>
</glyph>
<glyph name="si_VRa" format="1">
  <advance width="551"/>
  <outline>
    <contour>
      <point x="55" y="-47" type="line"/>
      <point x="55" y="-75" type="line" smooth="yes"/>
      <point x="55" y="-181"/>
      <point x="135" y="-234"/>
      <point x="298" y="-234" type="curve" smooth="yes"/>
      <point x="465" y="-234"/>
      <point x="542" y="-172"/>
      <point x="542" y="-49" type="curve" smooth="yes"/>
      <point x="542" y="16"/>
      <point x="539" y="67"/>
      <point x="463" y="106" type="curve"/>
      <point x="364" y="0" type="line" smooth="yes"/>
      <point x="411" y="0"/>
      <point x="407" y="-42"/>
      <point x="407" y="-47" type="curve"/>
      <point x="407" y="-95"/>
      <point x="352" y="-104"/>
      <point x="297" y="-104" type="curve" smooth="yes"/>
      <point x="239" y="-104"/>
      <point x="185" y="-95"/>
      <point x="185" y="-47" type="curve"/>
    </contour>
    <component base="si_Va"/>
  </outline>
</glyph>
<glyph name="si_Ya.post" format="1">
  <advance width="518"/>
  <outline>
    <contour>
      <point x="136" y="396" type="curve"/>
      <point x="173" y="376" type="line"/>
      <point x="182" y="410"/>
      <point x="190" y="526"/>
      <point x="293" y="526" type="curve" smooth="yes"/>
      <point x="372" y="526"/>
      <point x="394" y="481"/>
      <point x="405" y="459" type="curve"/>
      <point x="443" y="473" type="line"/>
      <point x="407" y="548"/>
      <point x="346" y="566"/>
      <point x="293" y="566" type="curve" smooth="yes"/>
      <point x="210" y="566"/>
      <point x="157" y="515"/>
    </contour>
    <contour>
      <point x="135" y="0" type="line"/>
      <point x="346" y="0" type="line" smooth="yes"/>
      <point x="346" y="0" type="line" smooth="yes"/>
      <point x="435" y="0"/>
      <point x="478" y="76"/>
      <point x="478" y="160" type="curve" smooth="yes"/>
      <point x="478" y="240" type="line" smooth="yes"/>
      <point x="478" y="397"/>
      <point x="390" y="403"/>
      <point x="308" y="403" type="curve" smooth="yes"/>
      <point x="298" y="403"/>
      <point x="173" y="403"/>
      <point x="163" y="403" type="curve"/>
      <point x="163" y="363" type="line"/>
      <point x="176" y="363"/>
      <point x="298" y="363"/>
      <point x="308" y="363" type="curve" smooth="yes"/>
      <point x="342" y="363"/>
      <point x="438" y="362"/>
      <point x="438" y="275" type="curve" smooth="yes"/>
      <point x="438" y="155" type="line" smooth="yes"/>
      <point x="438" y="94"/>
      <point x="400" y="40"/>
      <point x="338" y="40" type="curve" smooth="yes"/>
      <point x="145" y="40" type="line"/>
    </contour>
    <contour>
      <point x="40" y="0" type="line"/>
      <point x="80" y="0" type="line"/>
      <point x="170" y="363" type="line" smooth="yes"/>
      <point x="193" y="456"/>
      <point x="182" y="564"/>
      <point x="40" y="564" type="curve"/>
      <point x="40" y="524" type="line"/>
      <point x="153" y="524"/>
      <point x="153" y="453"/>
      <point x="118" y="313" type="curve" smooth="yes"/>
    </contour>
  </outline>
</glyph>
<glyph name="tml_KSsa" format="1">
  <advance width="1028"/>
  <outline>
    <contour>
      <point x="67" y="-139" type="curve" smooth="yes"/>
      <point x="67" y="-146" type="line" smooth="yes"/>
      <point x="67" y="-209"/>
      <point x="130" y="-234"/>
      <point x="177" y="-234" type="curve" smooth="yes"/>
      <point x="491" y="-234" type="line"/>
      <point x="491" y="-194" type="line"/>
      <point x="174" y="-194" type="line" smooth="yes"/>
      <point x="159" y="-194"/>
      <point x="107" y="-192"/>
      <point x="107" y="-139" type="curve" smooth="yes"/>
      <point x="107" y="-91"/>
      <point x="150" y="-83"/>
      <point x="165" y="-83" type="curve"/>
      <point x="180" y="-83"/>
      <point x="222" y="-89"/>
      <point x="222" y="-144" type="curve" smooth="yes"/>
      <point x="263" y="-144" type="line" smooth="yes"/>
      <point x="263" y="-136" type="line" smooth="yes"/>
      <point x="263" y="-83"/>
      <point x="225" y="-43"/>
      <point x="165" y="-43" type="curve"/>
      <point x="110" y="-43"/>
      <point x="67" y="-79"/>
    </contour>
    <contour>
      <point x="545" y="-194" type="line" smooth="yes"/>
      <point x="843" y="-194" type="line" smooth="yes"/>
      <point x="843" y="-89" type="line" smooth="yes"/>
      <point x="753" y="-89" type="line" smooth="yes"/>
      <point x="753" y="-49" type="line"/>
      <point x="830" y="-49" type="line" smooth="yes"/>
      <point x="873" y="-49"/>
      <point x="883" y="-74"/>
      <point x="883" y="-97" type="curve" smooth="yes"/>
      <point x="883" y="-179" type="line" smooth="yes"/>
      <point x="883" y="-222"/>
      <point x="866" y="-234"/>
      <point x="830" y="-234" type="curve" smooth="yes"/>
      <point x="545" y="-234" type="line"/>
    </contour>
    <contour>
      <point x="715" y="-143" type="line"/>
      <point x="715" y="155" type="line"/>
      <point x="729" y="181"/>
      <point x="743" y="154"/>
      <point x="757" y="155" type="curve"/>
      <point x="757" y="-143" type="line"/>
    </contour>
    <component base="tml_Va" xOffset="3"/>
  </outline>
</glyph>
<glyph name="tml_LlUu" format="1">
  <advance width="1232"/>
  <outline>
    <contour>
      <point x="40" y="57" type="line" smooth="yes"/>
      <point x="40" y="-77"/>
      <point x="108" y="-142"/>
      <point x="195" y="-142" type="curve" smooth="yes"/>
      <point x="615" y="-142" type="line"/>
      <point x="615" y="-102" type="line"/>
      <point x="192" y="-102" type="line" smooth="yes"/>
      <point x="133" y="-102"/>
      <point x="80" y="-55"/>
      <point x="80" y="56" type="curve" smooth="yes"/>
      <point x="80" y="287" type="line" smooth="yes"/>
      <point x="80" y="387"/>
      <point x="141" y="421"/>
      <point x="200" y="421" type="curve" smooth="yes"/>
      <point x="200" y="461" type="line" smooth="yes"/>
      <point x="132" y="461"/>
      <point x="40" y="424"/>
      <point x="40" y="292" type="curve" smooth="yes"/>
    </contour>
    <contour>
      <point x="669" y="-102" type="line"/>
      <point x="669" y="-142" type="line"/>
      <point x="1039" y="-142" type="line" smooth="yes"/>
      <point x="1142" y="-142"/>
      <point x="1192" y="-47"/>
      <point x="1192" y="20" type="curve" smooth="yes"/>
      <point x="1192" y="187" type="line" smooth="yes"/>
      <point x="1192" y="305"/>
      <point x="1089" y="334"/>
      <point x="1028" y="340" type="curve"/>
      <point x="1028" y="300" type="line"/>
      <point x="1060" y="300"/>
      <point x="1152" y="282"/>
      <point x="1152" y="183" type="curve" smooth="yes"/>
      <point x="1152" y="20" type="line" smooth="yes"/>
      <point x="1152" y="-49"/>
      <point x="1092" y="-102"/>
      <point x="1038" y="-102" type="curve" smooth="yes"/>
    </contour>
    <component base="tml_Lla" xOffset="189" yOffset="-3"/>
  </outline>
</glyph>
<glyph name="tml_MUu" format="1">
  <advance width="1002"/>
  <outline>
    <contour>
      <point x="116" y="26" type="line" smooth="yes"/>
      <point x="116" y="-84"/>
      <point x="181" y="-138"/>
      <point x="265" y="-138" type="curve" smooth="yes"/>
      <point x="452" y="-138" type="line"/>
      <point x="452" y="-98" type="line"/>
      <point x="265" y="-98" type="line" smooth="yes"/>
      <point x="209" y="-98"/>
      <point x="156" y="-65"/>
      <point x="156" y="25" type="curve" smooth="yes"/>
      <point x="156" y="387" type="line" smooth="yes"/>
      <point x="156" y="449"/>
      <point x="195" y="483"/>
      <point x="243" y="483" type="curve" smooth="yes"/>
      <point x="297" y="483"/>
      <point x="324" y="452"/>
      <point x="324" y="405" type="curve" smooth="yes"/>
      <point x="324" y="365"/>
      <point x="293" y="332"/>
      <point x="239" y="331" type="curve" smooth="yes"/>
      <point x="239" y="291" type="line"/>
      <point x="308" y="291"/>
      <point x="364" y="346"/>
      <point x="364" y="400" type="curve" smooth="yes"/>
      <point x="364" y="411" type="line" smooth="yes"/>
      <point x="364" y="464"/>
      <point x="323" y="523"/>
      <point x="244" y="523" type="curve" smooth="yes"/>
      <point x="238" y="523" type="line" smooth="yes"/>
      <point x="169" y="523"/>
      <point x="116" y="465"/>
      <point x="116" y="387" type="curve" smooth="yes"/>
    </contour>
    <contour>
      <point x="506" y="-98" type="line" smooth="yes"/>
      <point x="606" y="-98" type="line" smooth="yes"/>
      <point x="606" y="15" type="line"/>
      <point x="647" y="15" type="line"/>
      <point x="647" y="-92" type="line" smooth="yes"/>
      <point x="647" y="-116"/>
      <point x="635" y="-138"/>
      <point x="605" y="-138" type="curve" smooth="yes"/>
      <point x="506" y="-138" type="line"/>
    </contour>
    <component base="tml_Ma" xOffset="363" yOffset="-2"/>
  </outline>
</glyph>
<glyph name="tml_NgUu" format="1">
  <advance width="935"/>
  <outline>
    <contour>
      <point x="40" y="-137" type="curve" smooth="yes"/>
      <point x="40" y="-149" type="line" smooth="yes"/>
      <point x="40" y="-205"/>
      <point x="103" y="-233"/>
      <point x="129" y="-233" type="curve" smooth="yes"/>
      <point x="396" y="-233" type="line"/>
      <point x="396" y="-193" type="line"/>
      <point x="149" y="-193" type="line" smooth="yes"/>
      <point x="134" y="-193"/>
      <point x="80" y="-185"/>
      <point x="80" y="-139" type="curve" smooth="yes"/>
      <point x="80" y="-92"/>
      <point x="113" y="-80"/>
      <point x="137" y="-80" type="curve"/>
      <point x="160" y="-80"/>
      <point x="200" y="-90"/>
      <point x="200" y="-143" type="curve" smooth="yes"/>
      <point x="241" y="-143" type="line" smooth="yes"/>
      <point x="241" y="-135" type="line" smooth="yes"/>
      <point x="241" y="-85"/>
      <point x="201" y="-40"/>
      <point x="137" y="-40" type="curve"/>
      <point x="78" y="-40"/>
      <point x="40" y="-85"/>
    </contour>
    <contour>
      <point x="450" y="-193" type="line" smooth="yes"/>
      <point x="855" y="-193" type="line" smooth="yes"/>
      <point x="855" y="-84" type="line" smooth="yes"/>
      <point x="740" y="-84" type="line" smooth="yes"/>
      <point x="740" y="-44" type="line"/>
      <point x="842" y="-44" type="line" smooth="yes"/>
      <point x="885" y="-44"/>
      <point x="895" y="-69"/>
      <point x="895" y="-92" type="curve" smooth="yes"/>
      <point x="895" y="-178" type="line" smooth="yes"/>
      <point x="895" y="-221"/>
      <point x="878" y="-233"/>
      <point x="842" y="-233" type="curve" smooth="yes"/>
      <point x="450" y="-233" type="line"/>
    </contour>
    <contour>
      <point x="712" y="-153" type="line"/>
      <point x="712" y="595" type="line"/>
      <point x="752" y="595" type="line"/>
      <point x="752" y="-153" type="line"/>
    </contour>
    <contour>
      <point x="284" y="0" type="line"/>
      <point x="284" y="40" type="line"/>
      <point x="714" y="40" type="line"/>
      <point x="714" y="0" type="line"/>
    </contour>
    <contour>
      <point x="241" y="0" type="line"/>
      <point x="241" y="40" type="line"/>
      <point x="423" y="40" type="line" smooth="yes"/>
      <point x="481" y="40"/>
      <point x="537" y="51"/>
      <point x="537" y="125" type="curve" smooth="yes"/>
      <point x="537" y="230" type="line" smooth="yes"/>
      <point x="537" y="303"/>
      <point x="458" y="313"/>
      <point x="423" y="314" type="curve" smooth="yes"/>
      <point x="423" y="354" type="line"/>
      <point x="493" y="354"/>
      <point x="577" y="321"/>
      <point x="577" y="230" type="curve" smooth="yes"/>
      <point x="577" y="112" type="line" smooth="yes"/>
      <point x="577" y="44"/>
      <point x="516" y="0"/>
      <point x="422" y="0" type="curve" smooth="yes"/>
    </contour>
    <contour>
      <point x="329" y="176" type="line"/>
      <point x="369" y="176" type="line"/>
      <point x="369" y="589" type="line"/>
      <point x="329" y="589" type="line"/>
    </contour>
    <contour>
      <point x="85" y="0" type="line"/>
      <point x="126" y="0" type="line"/>
      <point x="126" y="591" type="line"/>
      <point x="85" y="591" type="line"/>
    </contour>
    <contour>
      <point x="85" y="595" type="line"/>
      <point x="86" y="555" type="line"/>
      <point x="478" y="555" type="line"/>
      <point x="478" y="595" type="line"/>
    </contour>
  </outline>
</glyph>
<glyph name="tml_PU" format="1">
  <outline>
    <contour>
      <point x="40" y="24" type="line"/>
      <point x="40" y="597" type="line"/>
      <point x="80" y="597" type="line"/>
      <point x="80" y="24" type="line"/>
    </contour>
    <contour>
      <point x="250" y="0" type="line"/>
      <point x="393" y="0" type="line"/>
      <point x="393" y="-199" type="line"/>
      <point x="433" y="-199" type="line"/>
      <point x="433" y="596" type="line"/>
      <point x="393" y="596" type="line"/>
      <point x="393" y="40" type="line"/>
      <point x="250" y="40" type="line"/>
    </contour>
    <contour>
      <point x="40" y="0" type="line"/>
      <point x="40" y="40" type="line"/>
      <point x="196" y="40" type="line"/>
      <point x="196" y="0" type="line"/>
    </contour>
  </outline>
</glyph>
<glyph name="tml_RrAa.alt" format="1">
  <advance width="793"/>
  <outline>
    <contour>
      <point x="712" y="-199" type="line"/>
      <point x="712" y="595" type="line"/>
      <point x="753" y="595" type="line"/>
      <point x="753" y="-199" type="line"/>
    </contour>
    <component base="tml_Va"/>
  </outline>
</glyph>
<glyph name="tml_SsU" format="1">
  <outline>
    <contour>
      <point x="338" y="17" type="line"/>
      <point x="150" y="171"/>
      <point x="169" y="590"/>
      <point x="428" y="606" type="curve" smooth="yes"/>
      <point x="539" y="613"/>
      <point x="608" y="542"/>
      <point x="606" y="444" type="curve" smooth="yes"/>
      <point x="604" y="342"/>
      <point x="528" y="289"/>
      <point x="462" y="289" type="curve" smooth="yes"/>
      <point x="399" y="289"/>
      <point x="352" y="338"/>
      <point x="345" y="361" type="curve"/>
      <point x="372" y="392" type="line" smooth="yes"/>
      <point x="379" y="354"/>
      <point x="425" y="330"/>
      <point x="450" y="330" type="curve" smooth="yes"/>
      <point x="540" y="330"/>
      <point x="566" y="404"/>
      <point x="566" y="443" type="curve" smooth="yes"/>
      <point x="566" y="529"/>
      <point x="495" y="580"/>
      <point x="426" y="566" type="curve"/>
      <point x="200" y="521"/>
      <point x="198" y="173"/>
      <point x="402" y="22" type="curve"/>
    </contour>
    <contour>
      <point x="67" y="0" type="line"/>
      <point x="67" y="40" type="line"/>
      <point x="690" y="40" type="line"/>
      <point x="690" y="0" type="line"/>
    </contour>
    <contour>
      <point x="67" y="95" type="line"/>
      <point x="67" y="596" type="line"/>
      <point x="107" y="596" type="line"/>
      <point x="107" y="95" type="line"/>
    </contour>
  </outline>
</glyph>
<glyph name="tml_YUu" format="1">
  <advance width="817"/>
  <outline>
    <contour>
      <point x="40" y="-140" type="curve" smooth="yes"/>
      <point x="40" y="-145" type="line" smooth="yes"/>
      <point x="40" y="-207"/>
      <point x="100" y="-235"/>
      <point x="133" y="-235" type="curve" smooth="yes"/>
      <point x="360" y="-235" type="line"/>
      <point x="360" y="-195" type="line"/>
      <point x="137" y="-195" type="line" smooth="yes"/>
      <point x="124" y="-195"/>
      <point x="80" y="-189"/>
      <point x="80" y="-139" type="curve" smooth="yes"/>
      <point x="80" y="-88"/>
      <point x="125" y="-79"/>
      <point x="141" y="-79" type="curve"/>
      <point x="157" y="-79"/>
      <point x="200" y="-84"/>
      <point x="200" y="-142" type="curve" smooth="yes"/>
      <point x="241" y="-142" type="line" smooth="yes"/>
      <point x="241" y="-136" type="line" smooth="yes"/>
      <point x="241" y="-78"/>
      <point x="199" y="-39"/>
      <point x="141" y="-39" type="curve"/>
      <point x="86" y="-39"/>
      <point x="40" y="-78"/>
    </contour>
    <contour>
      <point x="413" y="-195" type="line" smooth="yes"/>
      <point x="737" y="-195" type="line" smooth="yes"/>
      <point x="737" y="-84" type="line" smooth="yes"/>
      <point x="631" y="-84" type="line" smooth="yes"/>
      <point x="631" y="-44" type="line"/>
      <point x="714" y="-44" type="line" smooth="yes"/>
      <point x="761" y="-44"/>
      <point x="777" y="-56"/>
      <point x="777" y="-89" type="curve" smooth="yes"/>
      <point x="777" y="-180" type="line" smooth="yes"/>
      <point x="777" y="-225"/>
      <point x="755" y="-235"/>
      <point x="719" y="-235" type="curve" smooth="yes"/>
      <point x="413" y="-235" type="line"/>
    </contour>
    <contour>
      <point x="601" y="-143" type="line"/>
      <point x="601" y="168" type="line"/>
      <point x="640" y="168" type="line"/>
      <point x="640" y="-143" type="line"/>
    </contour>
    <component base="tml_Ya" xOffset="35"/>
  </outline>
</glyph>
